<?xml version="1.0" encoding="UTF-8"?>
<!DOCTYPE svg PUBLIC "-//W3C//DTD SVG 1.1//EN" "http://www.w3.org/Graphics/SVG/1.1/DTD/svg11.dtd">
<!-- Creator: CorelDRAW X7 -->
<svg xmlns="http://www.w3.org/2000/svg" xml:space="preserve" width="256mm" height="256mm" version="1.1" style="shape-rendering:geometricPrecision; text-rendering:geometricPrecision; image-rendering:optimizeQuality; fill-rule:evenodd; clip-rule:evenodd"
viewBox="0 0 25600 25600"
 xmlns:xlink="http://www.w3.org/1999/xlink">
 <defs>
  <style type="text/css">
   <![CDATA[
    .fil8 {fill:#050000}
    .fil7 {fill:#2B2A29}
    .fil10 {fill:#2E2E2E}
    .fil16 {fill:#424242}
    .fil22 {fill:#454545}
    .fil3 {fill:#4D4D4D}
    .fil6 {fill:#4F4E4E}
    .fil18 {fill:#5D5D5D}
    .fil12 {fill:#5E5E5E}
    .fil13 {fill:#616161}
    .fil14 {fill:#666666}
    .fil2 {fill:dimgray}
    .fil26 {fill:#6A6A6A}
    .fil24 {fill:#6B6B6B}
    .fil28 {fill:#6D6D6B}
    .fil21 {fill:#707070}
    .fil27 {fill:#737371}
    .fil25 {fill:#757575}
    .fil38 {fill:#79787D}
    .fil33 {fill:#7C7F86}
    .fil29 {fill:#7F8289}
    .fil35 {fill:#808185}
    .fil19 {fill:#828282}
    .fil17 {fill:#848484}
    .fil34 {fill:#85858D}
    .fil36 {fill:#888892}
    .fil37 {fill:#8B8B93}
    .fil31 {fill:#8F939F}
    .fil9 {fill:#919191}
    .fil1 {fill:#A3A3A3}
    .fil23 {fill:#A8A8A8}
    .fil30 {fill:#AEB1BF}
    .fil39 {fill:#B5C1CF}
    .fil20 {fill:#B9B9B9}
    .fil32 {fill:#C1C5D4}
    .fil40 {fill:#C1C9D4}
    .fil4 {fill:#C9C9C9}
    .fil41 {fill:#CACEDA}
    .fil42 {fill:#D0C5D5}
    .fil0 {fill:#DEDDDB}
    .fil15 {fill:#E3E3E3}
    .fil11 {fill:#E5E5E5}
    .fil5 {fill:white}
   ]]>
  </style>
 </defs>
 <g id="Слой_x0020_1">
  <metadata id="CorelCorpID_0Corel-Layer"/>
  <g id="_1829559310736">
   <g>
    <path class="fil0" d="M15748 22242c5441,0 9852,-90 9852,-202 0,-112 -4411,-202 -9852,-202 -1831,0 -3661,0 -5491,0 -5442,0 -9853,90 -9853,202 0,112 4411,202 9853,202 1830,0 3660,0 5491,0z"/>
    <path class="fil1" d="M14537 22183c5717,0 10267,-63 10267,-154 0,-92 -5167,-177 -10267,-177 -918,0 -1835,0 -2753,0 -5100,0 -10267,85 -10267,177 0,91 4550,154 10267,154 918,0 1835,0 2753,0z"/>
    <path class="fil2" d="M24279 22018c0,-189 -22553,-189 -22553,0 0,106 22553,106 22553,0z"/>
   </g>
   <g>
    <rect class="fil3" x="907" y="5424" width="24163" height="16651" rx="2343" ry="2309"/>
    <rect class="fil4" x="1085" y="5424" width="23807" height="16651" rx="2309" ry="2309"/>
    <path class="fil5" d="M1669 19674l0 -11848c0,-1250 1023,-2273 2273,-2273l-400 0c-1251,0 -2274,1023 -2274,2273l0 11848c0,876 502,1640 1232,2019 -563,-497 -831,-1279 -831,-2019z"/>
    <path class="fil5" d="M23933 20126l0 -12040c0,-1250 -1491,-2273 -3313,-2273l584 0c1822,0 3313,1023 3313,2273l0 12040c0,603 -347,1153 -910,1561 299,-447 326,-1029 326,-1561z"/>
    <rect class="fil6" x="2346" y="6655" width="21364" height="14347" rx="1121" ry="1112"/>
    <path class="fil7" d="M3458 6655l19140 0c611,0 1112,500 1112,1112l0 144c0,-598 -489,-1086 -1086,-1086l-19192 0c-597,0 -1086,488 -1086,1086l0 -144c0,-612 500,-1112 1112,-1112zm20252 13091l0 144c0,611 -501,1112 -1112,1112l-19140 0c-612,0 -1112,-501 -1112,-1112l0 -144c0,597 489,1086 1086,1086l19192 0c597,0 1086,-489 1086,-1086z"/>
    <rect class="fil8" x="2346" y="11363" width="10110.1" height="34.9033"/>
    <rect class="fil8" x="2346" y="11535" width="10110.1" height="34.9033"/>
    <rect class="fil9" x="4421" y="8339" width="480" height="1728" rx="3298" ry="3298"/>
    <rect class="fil9" x="5983" y="8339" width="480" height="1728" rx="3298" ry="3298"/>
    <path class="fil8" d="M23628 6891c-359,-788 -1154,-1338 -2071,-1338l-16861 0c-1158,0 -2069,103 -2346,1338 331,-242 739,-385 1178,-385l18922 0c439,0 846,143 1178,385z"/>
    <path class="fil8" d="M23628 20884c-359,676 -1154,1149 -2071,1149l-16861 0c-1158,0 -2069,-89 -2346,-1149 331,207 739,330 1178,330l18922 0c439,0 846,-123 1178,-330z"/>
    <rect class="fil10" x="4133" y="5717" width="388" height="593"/>
    <rect class="fil11" x="6709" y="5928" width="921" height="109"/>
    <rect class="fil11" x="6709" y="6144" width="921" height="109"/>
    <rect class="fil12" x="6576" y="5723" width="1405" height="109"/>
    <rect class="fil12" x="6576" y="6336" width="1405" height="109"/>
    <circle class="fil11" cx="8004" cy="6026" r="58"/>
    <g>
     <path class="fil8" d="M3247 5572l19675 0 0 -1570c0,-78 -28,-150 -74,-207l0 0 0 0c-13,-16 -27,-30 -42,-43l-237 -244c-76,-78 -182,-150 -290,-150l-18547 0c-108,0 -197,89 -197,198l0 119c-162,21 -288,160 -288,327l0 1570z"/>
     <path class="fil13" d="M11160 4465l-7568 0c-109,0 -198,89 -198,198l0 894 7964 0 0 -894c0,-109 -89,-198 -198,-198z"/>
     <rect class="fil13" x="3609" y="3930" width="7684" height="480" rx="66" ry="66"/>
     <path class="fil13" d="M20210 4460l-8545 0c-109,0 -198,89 -198,198l0 895 8941 0 0 -895c0,-109 -89,-198 -198,-198z"/>
     <rect class="fil13" x="11467" y="3925" width="8805" height="480" rx="76" ry="66"/>
     <rect class="fil13" x="20490" y="3930" width="2039" height="480" rx="18" ry="66"/>
     <path class="fil13" d="M22764 4460l-2181 0c-36,0 -66,30 -66,66l0 1027 2313 0 0 -1027c0,-36 -30,-66 -66,-66z"/>
     <path class="fil14" d="M9918 3358l1246 0c36,0 59,30 66,66l63 348c6,36 -30,66 -66,66l-7627 0c-36,0 -66,-30 -66,-66l0 -130 4268 0c783,0 1449,-81 2116,-284z"/>
     <path class="fil14" d="M11327 3358l2700 0c-14,29 -20,64 -14,102l0 0c17,103 116,188 219,188l3097 0c103,0 174,-85 158,-188l0 0c-6,-38 -23,-73 -47,-102l2540 0c39,0 296,363 336,414 23,29 -29,66 -66,66l-8776 0c-36,0 -62,-30 -66,-66l-31 -281c-6,-50 -17,-91 -50,-133z"/>
     <path class="fil14" d="M22245 3358l-2112 0c13,1 73,8 149,107 62,79 174,214 211,285 37,70 63,88 157,88l2064 0c0,0 46,-42 0,-100 -46,-59 -234,-266 -469,-380z"/>
    </g>
    <rect class="fil15" x="864" y="8851" width="805" height="3559"/>
    <rect class="fil16" x="1669" y="9361" width="512" height="3251"/>
    <rect class="fil17" x="2182" y="8637" width="165" height="3975"/>
    <rect class="fil18" x="1085" y="10125" width="297" height="559"/>
    <rect class="fil19" x="1085" y="10334" width="297" height="140"/>
    <rect class="fil20" x="921" y="8851" width="165" height="2823"/>
    <rect class="fil5" x="1669" y="10016" width="512" height="768"/>
    <path class="fil21" d="M3458 6655l19140 0c611,0 1112,500 1112,1112l0 573c0,-554 -454,-1007 -1007,-1007l-19350 0c-554,0 -1007,453 -1007,1007l0 -573c0,-612 500,-1112 1112,-1112zm20252 12662l0 573c0,611 -501,1112 -1112,1112l-19140 0c-612,0 -1112,-501 -1112,-1112l0 -573c0,554 453,1007 1007,1007l19350 0c553,0 1007,-453 1007,-1007z"/>
    <path class="fil8" d="M23732 5572l-9682 0c-979,0 -1462,855 -1781,1781 -969,2816 -939,5679 0,8584 301,933 802,1782 1781,1782l9682 0c980,0 1781,-802 1781,-1782l0 -8584c0,-979 -801,-1781 -1781,-1781z"/>
    <path class="fil13" d="M23845 5512l-9543 0c-966,0 -1442,842 -1756,1755 -955,2776 -926,5597 0,8461 297,919 790,1756 1756,1756l9543 0c965,0 1755,-790 1755,-1756l0 -8461c0,-965 -790,-1755 -1755,-1755z"/>
    <path class="fil22" d="M23560 5895l-8975 0c-904,0 -1388,776 -1643,1643 -761,2581 -733,5221 0,7919 237,872 739,1643 1643,1643l8975 0c904,0 1643,-739 1643,-1643l0 -7919c0,-903 -739,-1643 -1643,-1643z"/>
    <path class="fil13" d="M23728 6655l-9119 0c-1780,0 -1778,9678 0,9678l9119 0c434,0 789,-354 789,-788l0 -8102c0,-433 -355,-788 -789,-788z"/>
    <path class="fil23" d="M23485 6898l-8661 0c-1689,0 -1688,9192 0,9192l8661 0c412,0 749,-337 749,-749l0 -7694c0,-412 -337,-749 -749,-749z"/>
    <path class="fil15" d="M23485 6898l-7271 0 6487 9192 784 0c412,0 749,-337 749,-749l0 -7694c0,-412 -337,-749 -749,-749z"/>
    <circle class="fil24" cx="19402" cy="11494" r="4226"/>
    <circle class="fil25" cx="19402" cy="11494" r="3873"/>
    <circle class="fil26" cx="19402" cy="11494" r="3550"/>
    <circle class="fil27" cx="19402" cy="11494" r="3314"/>
    <circle class="fil28" cx="19402" cy="11494" r="3167"/>
    <circle class="fil29" cx="19402" cy="11494" r="2825"/>
    <circle class="fil30" cx="19402" cy="11494" r="2581"/>
    <circle class="fil31" cx="19402" cy="11494" r="2439"/>
    <circle class="fil32" cx="19402" cy="11494" r="2287"/>
    <circle class="fil33" cx="19402" cy="11494" r="1813"/>
    <circle class="fil34" cx="19402" cy="11494" r="1630"/>
    <circle class="fil35" cx="19402" cy="11494" r="1473"/>
    <circle class="fil36" cx="19402" cy="11494" r="1054"/>
    <circle class="fil37" cx="19402" cy="11494" r="940"/>
    <circle class="fil38" cx="19402" cy="11494" r="752"/>
    <path class="fil5" d="M19402 10742c-119,0 -232,28 -331,77 0,0 227,338 245,575 17,237 146,200 254,100 109,-100 144,-233 332,-247 83,-6 120,-77 136,-154 -134,-211 -369,-351 -636,-351z"/>
    <path class="fil39" d="M17496 9408l48 295c469,-487 1128,-790 1858,-790 191,0 378,21 557,61l-125 -272c-141,-22 -285,-33 -432,-33 -735,0 -1403,280 -1906,739z"/>
    <path class="fil40" d="M19402 8913c-730,0 -1389,303 -1858,790l29 178c446,-507 1100,-826 1829,-826 219,0 431,29 633,83l-76 -164c-179,-40 -366,-61 -557,-61z"/>
    <path class="fil41" d="M19402 9055c-729,0 -1383,319 -1829,826l32 199c418,-532 1068,-873 1797,-873 250,0 492,41 718,115l-85 -184c-202,-54 -414,-83 -633,-83z"/>
    <path class="fil42" d="M19402 9207c-729,0 -1379,341 -1797,873l117 730c270,-662 921,-1129 1680,-1129 382,0 737,119 1030,321l-312 -680c-226,-74 -468,-115 -718,-115z"/>
    <rect class="fil25" y="8851" width="921" height="3559"/>
    <rect class="fil5" y="9567" width="921" height="841"/>
    <rect class="fil8" y="12164" width="921" height="246"/>
    <rect class="fil16" y="12024" width="921" height="140"/>
    <rect class="fil3" y="8851" width="920.691" height="61.0625"/>
    <rect class="fil20" y="8851" width="189" height="3559"/>
   </g>
  </g>
 </g>
</svg>
