<svg width="9" height="9" viewBox="0 0 9 9" fill="none" xmlns="http://www.w3.org/2000/svg">
<path d="M8.66177 1.07096L8.42078 0.863918C8.02076 0.520165 7.41965 0.558482 7.06649 0.950114L3.03508 5.42016L1.81819 4.37209C1.41859 4.02795 0.817391 4.06549 0.463802 4.4567L0.250727 4.69248C0.0779334 4.88357 -0.011785 5.13564 0.00124423 5.39312C0.014402 5.65046 0.129206 5.89205 0.32059 6.06478L2.55122 8.10746C2.74435 8.28882 3.00317 8.3834 3.26772 8.36937C3.53227 8.35536 3.77961 8.23382 3.95242 8.03301L8.7649 2.44123C8.93303 2.24587 9.01662 1.99174 8.99724 1.73479C8.97788 1.47765 8.85724 1.23891 8.66177 1.07096Z" fill="#71858D"/>
</svg>
