<svg width="17" height="17" viewBox="0 0 17 17" fill="none" xmlns="http://www.w3.org/2000/svg">
<path d="M1.59375 3.54167C1.59375 2.46586 2.46586 1.59375 3.54167 1.59375C4.4333 1.59375 5.18501 2.19282 5.41626 3.01042H14.5208C14.8142 3.01042 15.0521 3.24827 15.0521 3.54167C15.0521 3.83506 14.8142 4.07292 14.5208 4.07292H5.41626C5.18501 4.89051 4.4333 5.48958 3.54167 5.48958C2.46586 5.48958 1.59375 4.61747 1.59375 3.54167Z" fill="#343434"/>
<path d="M5.41626 13.9896C5.18501 14.8072 4.4333 15.4063 3.54167 15.4063C2.46586 15.4063 1.59375 14.5342 1.59375 13.4583C1.59375 12.3825 2.46586 11.5104 3.54167 11.5104C4.4333 11.5104 5.18501 12.1095 5.41626 12.9271H14.5208C14.8142 12.9271 15.0521 13.1649 15.0521 13.4583C15.0521 13.7517 14.8142 13.9896 14.5208 13.9896H5.41626Z" fill="#343434"/>
<path d="M1.94794 8.49999C1.94794 8.2066 2.18579 7.96874 2.47919 7.96874H7.68792C7.91919 7.15112 8.67087 6.55208 9.56252 6.55208C10.4542 6.55208 11.2059 7.15112 11.4371 7.96874H14.5209C14.8142 7.96874 15.0521 8.2066 15.0521 8.49999C15.0521 8.79339 14.8142 9.03124 14.5209 9.03124H11.4371C11.2059 9.84887 10.4542 10.4479 9.56252 10.4479C8.67087 10.4479 7.91919 9.84887 7.68792 9.03124H2.47919C2.18579 9.03124 1.94794 8.79339 1.94794 8.49999Z" fill="#343434"/>
</svg>
