<?xml version="1.0" encoding="UTF-8"?>
<!DOCTYPE svg PUBLIC "-//W3C//DTD SVG 1.1//EN" "http://www.w3.org/Graphics/SVG/1.1/DTD/svg11.dtd">
<!-- Creator: CorelDRAW X7 -->
<svg xmlns="http://www.w3.org/2000/svg" xml:space="preserve" width="256mm" height="256mm" version="1.1" style="shape-rendering:geometricPrecision; text-rendering:geometricPrecision; image-rendering:optimizeQuality; fill-rule:evenodd; clip-rule:evenodd"
viewBox="0 0 25600 25600"
 xmlns:xlink="http://www.w3.org/1999/xlink">
 <defs>
  <style type="text/css">
   <![CDATA[
    .fil3 {fill:black}
    .fil7 {fill:#171717}
    .fil5 {fill:#353431}
    .fil8 {fill:#626469}
    .fil2 {fill:dimgray}
    .fil4 {fill:#6D6D68}
    .fil1 {fill:#A3A3A3}
    .fil10 {fill:#C5C8CF}
    .fil0 {fill:#DEDDDB}
    .fil6 {fill:white}
    .fil11 {fill:#797B80;fill-rule:nonzero}
    .fil12 {fill:#A8A9AD;fill-rule:nonzero}
    .fil9 {fill:#C5C8CF;fill-rule:nonzero}
    .fil13 {fill:#F0F0F0;fill-rule:nonzero}
    .fil14 {fill:#FEFEFE;fill-rule:nonzero}
    .fil15 {fill:white;fill-rule:nonzero}
   ]]>
  </style>
 </defs>
 <g id="Слой_x0020_1">
  <metadata id="CorelCorpID_0Corel-Layer"/>
  <g id="_1829591242432">
   <g>
    <path class="fil0" d="M13386 25600c1162,0 2104,-97 2104,-216 0,-120 -942,-216 -2104,-216 -391,0 -781,0 -1172,0 -1162,0 -2104,96 -2104,216 0,119 942,216 2104,216 391,0 781,0 1172,0z"/>
    <path class="fil1" d="M13128 25537c1220,0 2192,-67 2192,-165 0,-98 -1103,-190 -2192,-190 -196,0 -392,0 -588,0 -1089,0 -2192,92 -2192,190 0,98 971,165 2192,165 196,0 392,0 588,0z"/>
    <path class="fil2" d="M15208 25361c0,-203 -4816,-203 -4816,0 0,113 4816,113 4816,0z"/>
   </g>
   <g>
    <g>
     <path class="fil3" d="M12665 9458l270 0c10,0 19,148 19,328l0 12777c0,516 -25,937 -56,937l-196 0c-31,0 -56,-421 -56,-937l0 -12777c0,-180 9,-328 19,-328zm111 8539l48 0 -24 818 -24 -818z"/>
     <path class="fil3" d="M11014 14335l3572 0c143,0 259,117 259,259l0 10082c0,407 -333,740 -739,740l-2612 0c-406,0 -739,-333 -739,-740l0 -10082c0,-142 116,-259 259,-259zm1463 6738l646 0 -323 646 -323 -646z"/>
     <path class="fil4" d="M11143 14503l3314 0c132,0 240,108 240,240l0 134c0,-132 -108,-240 -240,-240l-3314 0c-132,0 -240,108 -240,240l0 -134c0,-132 108,-240 240,-240zm3554 9926l0 134c0,377 -309,686 -686,686l-2422 0c-377,0 -686,-309 -686,-686l0 -134c0,377 309,686 686,686l2422 0c377,0 686,-309 686,-686z"/>
     <path class="fil5" d="M11143 14637l3314 0c132,0 240,108 240,240l0 9552c0,377 -309,686 -686,686l-2422 0c-377,0 -686,-309 -686,-686l0 -9552c0,-132 108,-240 240,-240zm1334 6436l646 0 -323 646 -323 -646z"/>
     <path class="fil6" d="M14111 19364l-2622 0c-143,0 -259,117 -259,259l0 4689c0,142 116,259 259,259l2622 0c143,0 259,-117 259,-259l0 -4689c0,-142 -116,-259 -259,-259z"/>
     <g>
      <path class="fil3" d="M12800 21790c-441,0 -798,358 -798,798 0,441 357,799 798,799 441,0 798,-358 798,-799 0,-440 -357,-798 -798,-798z"/>
      <path class="fil7" d="M12800 22103c-268,0 -485,217 -485,485 0,268 217,486 485,486 268,0 485,-218 485,-486 0,-268 -217,-485 -485,-485z"/>
      <path class="fil8" d="M12779 22182c-215,11 -386,189 -386,406 0,218 171,396 386,407l0 -813z"/>
      <path class="fil9" d="M12645 21408c-267,35 -506,158 -687,339 -215,215 -349,513 -349,841 0,329 134,627 349,842 216,216 513,349 842,349 329,0 626,-133 842,-349 215,-215 349,-513 349,-842 0,-328 -134,-626 -349,-841 -181,-181 -420,-304 -687,-339l46 -91c275,43 521,173 709,361 233,233 377,555 377,910 0,356 -144,678 -377,911 -233,233 -554,377 -910,377 -355,0 -677,-144 -910,-377 -233,-233 -377,-555 -377,-911 0,-355 144,-677 377,-910 188,-188 434,-318 709,-361l46 91z"/>
     </g>
     <polygon class="fil10" points="12653,21195 12947,21195 12800,21489 "/>
    </g>
    <g>
     <path class="fil11" d="M18657 8162c-2001,-935 -4109,-88 -4109,-88l-918 246c315,-679 1596,-1765 3026,-1788 1538,-26 1527,-1341 1527,-1341 259,-1244 -1491,-2880 -3299,-1614 -1809,1266 -2129,3515 -2129,3515l-246 918c-431,-613 -731,-2265 -38,-3515 748,-1344 -397,-1993 -397,-1993 -948,-847 -3238,-150 -3046,2050 191,2200 1978,3602 1978,3602l672 673c-745,66 -2326,-501 -3062,-1727 -791,-1319 -1925,-651 -1925,-651 -1206,395 -1748,2730 252,3662 2002,935 4109,88 4109,88l919 -246c-316,678 -1596,1765 -3026,1788 -1539,26 -1527,1342 -1527,1342 -260,1242 1489,2879 3299,1614 1809,-1267 2129,-3516 2129,-3516l246 -918c430,613 730,2265 36,3515 -746,1345 399,1993 399,1993 946,846 3239,150 3047,-2051 -193,-2198 -1979,-3600 -1979,-3600l-673 -673c746,-66 2327,500 3062,1726 791,1319 1925,652 1925,652 1207,-396 1749,-2731 -252,-3663z"/>
     <path class="fil12" d="M18690 8386c-1964,-1010 -4102,-244 -4102,-244l-928 211c341,-667 1663,-1703 3093,-1671 1538,33 1577,-1282 1577,-1282 307,-1234 -1379,-2935 -3235,-1739 -1856,1196 -2262,3431 -2262,3431l-281 908c-407,-629 -644,-2291 97,-3514 799,-1315 -321,-2007 -321,-2007 -914,-882 -3230,-273 -3122,1932 107,2206 1839,3675 1839,3675l646 698c-747,38 -2306,-589 -2994,-1843 -740,-1348 -1898,-724 -1898,-724 -1221,349 -1852,2661 111,3670 1964,1010 4102,244 4102,244l929 -211c-342,666 -1663,1703 -3093,1671 -1539,-32 -1577,1283 -1577,1283 -307,1231 1378,2934 3235,1739 1855,-1197 2262,-3431 2262,-3431l281 -909c406,629 643,2292 -99,3514 -796,1315 323,2007 323,2007 913,882 3230,273 3122,-1933 -108,-2204 -1839,-3673 -1839,-3673l-646 -698c747,-38 2305,589 2993,1842 740,1348 1899,724 1899,724 1221,-349 1852,-2661 -112,-3670z"/>
    </g>
    <path class="fil13" d="M18527 8809c-1825,-1105 -3937,-511 -3937,-511l-390 60c-159,96 -290,197 -385,295l917 66c0,0 2192,-108 3724,1377 585,566 767,1202 700,1771 651,-769 752,-2223 -629,-3058zm-184 -3811c-341,-948 -1550,-1763 -2964,-985 -1869,1028 -2410,3155 -2410,3155l-142 368c3,185 25,349 63,480l515 -761c0,0 1001,-1952 3053,-2537 784,-223 1425,-62 1885,280zm-6355 -2731c-992,-179 -2302,460 -2335,2074 -45,2133 1526,3665 1526,3665l247 308c163,89 315,152 448,185l-402 -826c0,0 -1189,-1844 -669,-3913 198,-791 659,-1266 1185,-1493zm-5543 4139c-651,768 -752,2223 628,3058 1826,1106 3938,511 3938,511l390 -61c159,-95 290,-196 385,-294l-917 -66c0,0 -2192,109 -3724,-1377 -586,-566 -767,-1202 -700,-1771zm813 6869c340,948 1549,1763 2964,986 1868,-1029 2410,-3156 2410,-3156l142 -366c-3,-186 -25,-350 -63,-482l-514 761c0,0 -1003,1952 -3054,2538 -784,223 -1426,62 -1885,-281zm6355 2731c991,179 2302,-460 2335,-2075 44,-2131 -1526,-3664 -1526,-3664l-247 -306c-163,-90 -316,-154 -448,-187l401 827c0,0 1189,1844 670,3912 -198,791 -659,1266 -1185,1493z"/>
    <path class="fil11" d="M12800 438c-4796,0 -8698,3902 -8698,8698 0,4796 3902,8698 8698,8698 4796,0 8698,-3902 8698,-8698 0,-4796 -3902,-8698 -8698,-8698zm0 17835c-5038,0 -9136,-4099 -9136,-9137 0,-5038 4098,-9136 9136,-9136 5038,0 9136,4098 9136,9136 0,5038 -4098,9137 -9136,9137z"/>
    <path class="fil12" d="M12800 585c-4715,0 -8551,3836 -8551,8551 0,4715 3836,8551 8551,8551 4715,0 8551,-3836 8551,-8551 0,-4715 -3836,-8551 -8551,-8551zm0 17533c-4953,0 -8982,-4029 -8982,-8982 0,-4952 4029,-8982 8982,-8982 4953,0 8982,4030 8982,8982 0,4953 -4029,8982 -8982,8982z"/>
    <path class="fil6" d="M12800 585c4821,0 8744,3923 8744,8744 0,4117 -2861,7579 -6699,8502 -49,12 -99,23 -148,34 -611,136 -1246,208 -1897,208 -651,0 -1286,-72 -1897,-208 -49,-10 -99,-22 -148,-34 -3838,-923 -6699,-4385 -6699,-8502 0,-4821 3923,-8744 8744,-8744zm0 17726c650,0 1285,-70 1897,-202 49,-10 99,-21 148,-33 3971,-928 6937,-4498 6937,-8747 0,-4953 -4029,-8982 -8982,-8982 -4953,0 -8982,4029 -8982,8982 0,4249 2966,7819 6937,8747 49,12 99,23 148,33 612,132 1246,202 1897,202z"/>
    <polygon class="fil14" points="12856,423 12856,18193 12744,18193 12744,423 "/>
    <polygon class="fil14" points="21589,9193 4011,9193 4011,9080 21589,9080 "/>
    <path class="fil15" d="M13726 9136c0,512 -414,926 -926,926 -511,0 -926,-414 -926,-926 0,-510 415,-925 926,-925 512,0 926,415 926,925z"/>
    <path class="fil14" d="M14546 9136c0,483 -195,919 -511,1235 -316,316 -752,512 -1234,512 -482,0 -919,-196 -1235,-512 -317,-316 -512,-753 -512,-1235 0,-481 195,-918 512,-1234 316,-316 753,-512 1235,-512 482,0 918,196 1234,512 316,316 511,753 511,1234zm-591 1156c296,-296 479,-704 479,-1156 0,-451 -183,-859 -479,-1155 -295,-295 -703,-478 -1154,-478 -451,0 -860,183 -1156,479 -296,295 -479,704 -479,1154 0,452 183,860 479,1155 296,296 704,479 1156,479 451,0 859,-183 1154,-478z"/>
    <path class="fil14" d="M15110 9136c0,638 -259,1216 -676,1634 -418,418 -995,676 -1633,676 -638,0 -1215,-258 -1634,-677 -418,-418 -677,-995 -677,-1633 0,-637 259,-1214 678,-1632 418,-418 995,-677 1633,-677 637,0 1214,259 1632,676 418,419 677,996 677,1633zm-756 1554c397,-397 643,-947 643,-1554 0,-606 -246,-1156 -644,-1553 -397,-398 -945,-644 -1552,-644 -607,0 -1156,247 -1554,644 -398,398 -644,947 -644,1553 0,607 246,1156 644,1554 397,397 947,643 1554,643 607,0 1156,-245 1553,-643z"/>
    <path class="fil14" d="M15673 9136c0,794 -321,1512 -841,2032 -520,520 -1238,841 -2031,841 -793,0 -1512,-321 -2032,-841 -520,-520 -842,-1239 -842,-2032 0,-792 322,-1510 843,-2031 520,-520 1238,-841 2031,-841 793,0 1511,321 2030,841 520,520 842,1239 842,2031zm-921 1953c500,-500 808,-1190 808,-1953 0,-762 -309,-1452 -808,-1952 -499,-499 -1189,-808 -1951,-808 -762,0 -1452,309 -1952,809 -500,500 -809,1190 -809,1951 0,763 309,1453 808,1952 500,500 1191,809 1953,809 763,0 1452,-309 1951,-808z"/>
    <path class="fil14" d="M16236 9136c0,949 -384,1809 -1006,2430 -621,622 -1480,1007 -2429,1007 -948,0 -1808,-385 -2430,-1007 -622,-622 -1007,-1481 -1007,-2430 0,-948 385,-1807 1007,-2429 623,-622 1482,-1007 2430,-1007 949,0 1807,385 2429,1007 622,622 1006,1481 1006,2429zm-1085 2351c601,-601 973,-1432 973,-2351 0,-917 -372,-1748 -974,-2350 -601,-601 -1431,-973 -2349,-973 -917,0 -1749,372 -2350,974 -602,601 -975,1432 -975,2349 0,918 373,1749 974,2350 602,602 1433,974 2351,974 918,0 1749,-372 2350,-973z"/>
    <path class="fil14" d="M16800 9136c0,1105 -448,2105 -1171,2829 -724,724 -1723,1171 -2828,1171 -1104,0 -2104,-448 -2828,-1172 -724,-724 -1173,-1723 -1173,-2828 0,-1103 449,-2103 1173,-2827 724,-724 1725,-1172 2828,-1172 1105,0 2104,448 2827,1171 724,724 1172,1725 1172,2828zm-1251 2750c703,-704 1138,-1676 1138,-2750 0,-1073 -435,-2045 -1138,-2748 -703,-703 -1674,-1138 -2748,-1138 -1073,0 -2045,435 -2749,1139 -703,703 -1139,1675 -1139,2747 0,1074 435,2045 1139,2748 704,704 1676,1139 2749,1139 1074,0 2045,-434 2748,-1137z"/>
    <path class="fil14" d="M17363 9136c0,1260 -510,2401 -1336,3227 -825,826 -1965,1336 -3225,1336 -1260,0 -2401,-511 -3228,-1337 -826,-825 -1337,-1966 -1337,-3226 0,-1258 512,-2399 1338,-3225 826,-826 1967,-1337 3227,-1337 1259,0 2399,510 3225,1336 825,826 1336,1967 1336,3226zm-1415 3148c805,-805 1302,-1918 1302,-3148 0,-1228 -498,-2341 -1303,-3147 -805,-805 -1916,-1303 -3145,-1303 -1229,0 -2342,499 -3148,1304 -806,806 -1304,1918 -1304,3146 0,1229 498,2342 1304,3147 805,805 1919,1304 3148,1304 1229,0 2341,-498 3146,-1303z"/>
    <path class="fil14" d="M17926 9136c0,1416 -573,2698 -1500,3626 -927,927 -2208,1501 -3624,1501 -1415,0 -2698,-574 -3626,-1502 -928,-928 -1502,-2209 -1502,-3625 0,-1414 574,-2695 1503,-3624 928,-927 2210,-1502 3625,-1502 1415,0 2696,574 3623,1502 928,928 1501,2210 1501,3624zm-1580 3546c907,-907 1468,-2161 1468,-3546 0,-1384 -561,-2638 -1469,-3545 -906,-907 -2159,-1468 -3543,-1468 -1384,0 -2638,562 -3546,1469 -908,908 -1470,2161 -1470,3544 0,1385 562,2638 1469,3545 908,908 2163,1469 3547,1469 1385,0 2638,-561 3544,-1468z"/>
    <path class="fil14" d="M18490 9136c0,1572 -637,2994 -1666,4024 -1029,1029 -2451,1666 -4022,1666 -1571,0 -2994,-637 -4024,-1667 -1030,-1030 -1668,-2452 -1668,-4023 0,-1569 638,-2992 1669,-4022 1030,-1030 2453,-1667 4023,-1667 1571,0 2992,637 4021,1666 1030,1030 1667,2453 1667,4023zm-1745 3945c1008,-1010 1632,-2404 1632,-3945 0,-1539 -624,-2934 -1633,-3944 -1009,-1008 -2402,-1632 -3942,-1632 -1539,0 -2934,624 -3944,1634 -1010,1009 -1635,2403 -1635,3942 0,1540 625,2934 1634,3943 1010,1010 2405,1634 3945,1634 1541,0 2934,-623 3943,-1632z"/>
    <path class="fil14" d="M19053 9136c0,1727 -699,3291 -1830,4422 -1131,1132 -2694,1831 -4421,1831 -1726,0 -3290,-700 -4422,-1832 -1132,-1131 -1833,-2694 -1833,-4421 0,-1725 701,-3288 1834,-4420 1132,-1132 2696,-1832 4421,-1832 1727,0 3289,700 4420,1831 1131,1132 1831,2696 1831,4421zm-1910 4343c1111,-1111 1797,-2647 1797,-4343 0,-1695 -687,-3230 -1798,-4342 -1110,-1110 -2644,-1798 -4340,-1798 -1695,0 -3230,688 -4342,1800 -1112,1111 -1800,2646 -1800,4340 0,1696 688,3231 1799,4342 1112,1111 2648,1799 4343,1799 1696,0 3231,-687 4341,-1798z"/>
    <path class="fil14" d="M19616 9136c0,1883 -762,3587 -1995,4821 -1233,1233 -2936,1996 -4819,1996 -1881,0 -3586,-763 -4821,-1998 -1234,-1233 -1997,-2937 -1997,-4819 0,-1880 764,-3584 1998,-4818 1235,-1234 2939,-1998 4820,-1998 1882,0 3585,763 4818,1997 1234,1234 1996,2938 1996,4819zm-2075 4741c1213,-1213 1963,-2889 1963,-4741 0,-1850 -751,-3527 -1964,-4740 -1212,-1213 -2886,-1963 -4738,-1963 -1850,0 -3526,751 -4740,1964 -1214,1214 -1966,2890 -1966,4739 0,1851 751,3527 1965,4740 1214,1213 2891,1964 4741,1964 1852,0 3527,-750 4739,-1963z"/>
    <path class="fil14" d="M20180 9136c0,2038 -826,3883 -2161,5219 -1334,1335 -3178,2161 -5216,2161 -2038,0 -3883,-826 -5220,-2162 -1336,-1336 -2163,-3180 -2163,-5218 0,-2036 828,-3881 2164,-5217 1337,-1335 3182,-2162 5219,-2162 2037,0 3881,826 5215,2161 1336,1336 2162,3181 2162,5218zm-2240 5140c1314,-1315 2127,-3132 2127,-5140 0,-2006 -813,-3823 -2128,-5139 -1314,-1314 -3130,-2128 -5136,-2128 -2006,0 -3824,815 -5140,2130 -1315,1315 -2130,3132 -2130,5137 0,2007 814,3823 2129,5138 1316,1316 3134,2129 5141,2129 2007,0 3823,-813 5137,-2127z"/>
    <path class="fil14" d="M20743 9136c0,2194 -888,4180 -2325,5617 -1437,1438 -3421,2326 -5615,2326 -2193,0 -4180,-889 -5618,-2327 -1438,-1438 -2328,-3423 -2328,-5616 0,-2191 891,-4177 2329,-5615 1438,-1438 3425,-2328 5617,-2328 2193,0 4177,890 5614,2327 1437,1438 2326,3424 2326,5616zm-2405 5538c1417,-1417 2292,-3375 2292,-5538 0,-2161 -876,-4119 -2293,-5537 -1416,-1416 -3372,-2293 -5534,-2293 -2161,0 -4120,878 -5538,2295 -1418,1417 -2295,3375 -2295,5535 0,2162 877,4119 2294,5536 1418,1418 3377,2295 5539,2295 2163,0 4119,-876 5535,-2293z"/>
   </g>
  </g>
 </g>
</svg>
