<?xml version="1.0" encoding="UTF-8"?>
<!DOCTYPE svg PUBLIC "-//W3C//DTD SVG 1.1//EN" "http://www.w3.org/Graphics/SVG/1.1/DTD/svg11.dtd">
<!-- Creator: CorelDRAW X7 -->
<svg xmlns="http://www.w3.org/2000/svg" xml:space="preserve" width="256mm" height="256mm" version="1.1" style="shape-rendering:geometricPrecision; text-rendering:geometricPrecision; image-rendering:optimizeQuality; fill-rule:evenodd; clip-rule:evenodd"
viewBox="0 0 25600 25600"
 xmlns:xlink="http://www.w3.org/1999/xlink">
 <defs>
  <style type="text/css">
   <![CDATA[
    .fil3 {fill:#080200}
    .fil8 {fill:#0D0908}
    .fil4 {fill:#0E0A09}
    .fil23 {fill:#100A0A}
    .fil22 {fill:#161513}
    .fil5 {fill:#17191F}
    .fil15 {fill:#1A1917}
    .fil20 {fill:#201E1F}
    .fil11 {fill:#208CBD}
    .fil16 {fill:#262425}
    .fil7 {fill:#2A2C33}
    .fil9 {fill:#3D3B3C}
    .fil25 {fill:#3E3C3D}
    .fil6 {fill:#403F40}
    .fil10 {fill:#464447}
    .fil18 {fill:#656366}
    .fil2 {fill:dimgray}
    .fil21 {fill:#79777A}
    .fil12 {fill:#7CB45B}
    .fil17 {fill:#9F9FA8}
    .fil1 {fill:#A3A3A3}
    .fil13 {fill:#D93B38}
    .fil0 {fill:#DEDDDB}
    .fil14 {fill:#EED44B}
    .fil24 {fill:#FAFAFA}
    .fil19 {fill:white}
   ]]>
  </style>
 </defs>
 <g id="Слой_x0020_1">
  <metadata id="CorelCorpID_0Corel-Layer"/>
  <g id="_1829554055680">
   <g>
    <path class="fil0" d="M15590 21394c5528,0 10010,-84 10010,-188 0,-104 -4482,-188 -10010,-188 -1861,0 -3719,0 -5580,0 -5528,0 -10010,84 -10010,188 0,104 4482,188 10010,188 1860,0 3720,0 5580,0z"/>
    <path class="fil1" d="M14359 21339c5809,0 10433,-58 10433,-143 0,-86 -5251,-165 -10433,-165 -932,0 -1864,0 -2796,0 -5182,0 -10433,79 -10433,165 0,85 4624,143 10433,143 932,0 1864,0 2796,0z"/>
    <path class="fil2" d="M24257 21186c0,-176 -22914,-176 -22914,0 0,99 22914,99 22914,0z"/>
   </g>
   <g>
    <path class="fil3" d="M21766 6068l-114 -361c-185,-581 -2344,-1279 -2904,-1391 -388,-78 -1151,-191 -1579,-24 -788,307 -518,533 -1590,533l-2779 0 -2779 0c-1072,0 -802,-226 -1590,-533 -428,-167 -1191,-54 -1579,24 -560,112 -2719,810 -2904,1391l-114 361c-77,76 -120,166 -139,267l0 0c79,-42 161,-83 247,-124 1010,-492 2019,-820 3022,-992 583,-100 908,-133 1323,333l1460 1635c531,596 559,723 1388,723l1665 0 1665 0c829,0 857,-127 1388,-723l1460 -1635c415,-466 740,-433 1323,-333 1003,172 2012,500 3022,992 86,41 168,82 247,124l0 0c-19,-101 -62,-191 -139,-267z"/>
    <path class="fil4" d="M12800 16885l3673 0c1277,0 1608,27 2580,836 1164,969 2142,2238 3257,3104 380,295 530,513 1033,357 1651,-513 2210,-1809 2238,-3405 36,-2013 -520,-4173 -1314,-6392l-1527 -4172c-204,-556 -593,-764 -1082,-1002 -1010,-492 -2019,-820 -3022,-992 -583,-100 -908,-133 -1323,333l-1460 1635c-531,596 -559,723 -1388,723l-1665 0 -1665 0c-829,0 -857,-127 -1388,-723l-1460 -1635c-415,-466 -740,-433 -1323,-333 -1003,172 -2012,500 -3022,992 -489,238 -878,446 -1082,1002l-1527 4172c-794,2219 -1350,4379 -1314,6392 28,1596 587,2892 2238,3405 503,156 653,-62 1033,-357 1115,-866 2093,-2135 3257,-3104 972,-809 1303,-836 2580,-836l3673 0z"/>
    <path class="fil5" d="M18026 17050c308,119 608,322 1027,671 1164,969 2142,2238 3257,3104 380,295 530,513 1033,357 1651,-513 2210,-1809 2238,-3405 36,-2013 -520,-4173 -1314,-6392l-1527 -4172c-204,-556 -593,-764 -1082,-1002 -1010,-492 -2019,-820 -3022,-992 -583,-100 -908,-133 -1323,333l-1460 1635c-531,596 -559,723 -1388,723l-1665 0 -1560 0 6786 9140z"/>
    <g>
     <path class="fil6" d="M7612 5538c-234,-101 -481,-65 -825,-2 -929,169 -1862,491 -2797,975 -452,233 -813,438 -1001,985l-1413 4100c-691,2048 -1804,6000 -869,8106 216,-1844 1976,-7991 3375,-11220 838,-1934 1413,-2483 3530,-2944z"/>
     <path class="fil7" d="M17988 5538c234,-101 481,-65 825,-2 929,169 1862,491 2797,975 452,233 813,438 1001,985l1413 4100c691,2048 1804,6000 869,8106 -216,-1844 -1976,-7991 -3375,-11220 -838,-1934 -1413,-2483 -3530,-2944z"/>
    </g>
    <circle class="fil8" cx="9419" cy="13470" r="2103"/>
    <path class="fil9" d="M9419 15573c1162,0 2103,-941 2103,-2103 0,-1161 -941,-2102 -2103,-2102l0 4205z"/>
    <path class="fil10" d="M8792 11908c0,265 0,531 0,796 0,77 -63,139 -139,139 -265,0 -529,0 -793,0 -353,0 -354,1255 0,1255 264,0 528,0 793,0 76,0 139,62 139,139 0,264 0,529 0,793 0,353 1254,354 1254,0 0,-264 0,-529 0,-793 0,-77 63,-139 140,-139 265,0 531,0 796,0 349,0 349,-1255 0,-1255 -265,0 -531,0 -796,0 -77,0 -140,-62 -140,-139 0,-265 0,-531 0,-796 0,-350 -1254,-349 -1254,0z"/>
    <circle class="fil7" cx="17529" cy="9353" r="961"/>
    <circle class="fil7" transform="matrix(2.74301E-014 -1.0357 1.0357 2.74301E-014 19293.2 11117.6)" r="928"/>
    <circle class="fil8" cx="17529" cy="9353" r="864"/>
    <circle class="fil8" transform="matrix(2.46476E-014 -0.93064 0.93064 2.46476E-014 19293.2 11117.6)" r="928"/>
    <circle class="fil11" cx="17529" cy="9353" r="675"/>
    <circle class="fil12" transform="matrix(1.92692E-014 -0.727566 0.727566 1.92692E-014 19293.2 11117.6)" r="928"/>
    <circle class="fil7" cx="21058" cy="9353" r="961"/>
    <circle class="fil7" transform="matrix(2.74301E-014 -1.0357 1.0357 2.74301E-014 19293.2 7588.32)" r="928"/>
    <circle class="fil8" cx="21058" cy="9353" r="864"/>
    <circle class="fil8" transform="matrix(2.46476E-014 -0.93064 0.93064 2.46476E-014 19293.2 7588.32)" r="928"/>
    <circle class="fil13" cx="21058" cy="9353" r="675"/>
    <circle class="fil14" transform="matrix(1.92692E-014 -0.727566 0.727566 1.92692E-014 19293.2 7588.32)" r="928"/>
    <circle class="fil15" cx="10940" cy="9324" r="646"/>
    <circle class="fil16" cx="10940" cy="9324" r="580"/>
    <path class="fil8" d="M10940 8870c-182,0 -339,107 -411,262 40,-11 81,-17 125,-17 250,0 453,203 453,453 0,69 -15,134 -42,192 190,-54 329,-229 329,-436 0,-251 -203,-454 -454,-454z"/>
    <circle class="fil15" cx="14660" cy="9324" r="646"/>
    <circle class="fil16" cx="14660" cy="9324" r="580"/>
    <path class="fil8" d="M14660 8870c-182,0 -340,107 -412,262 40,-11 82,-17 125,-17 251,0 454,203 454,453 0,69 -15,134 -43,192 190,-54 329,-229 329,-436 0,-251 -203,-454 -453,-454z"/>
    <path class="fil17" d="M12800 7910l-1665 0c-829,0 -857,-127 -1388,-723l-1460 -1635c-415,-466 -740,-433 -1323,-333 -1003,172 -2012,500 -3022,992 -285,139 -537,267 -737,461 -84,-26 2324,-1129 3666,-1298 326,-41 631,-90 870,-15 275,87 475,309 742,604l1480 1636c539,596 567,723 1407,723l1430 0 1430 0c840,0 868,-127 1407,-723l1480 -1636c267,-295 467,-517 742,-604 239,-75 544,-26 870,15 1343,169 3750,1272 3666,1298 -200,-194 -452,-322 -737,-461 -1010,-492 -2019,-820 -3022,-992 -583,-100 -908,-133 -1323,333l-1460 1635c-531,596 -559,723 -1388,723l-1665 0z"/>
    <path class="fil17" d="M12800 4969l-2779 0c-1072,0 -802,-226 -1590,-533 -394,-154 -1012,-99 -1670,62 295,-68 1201,-234 1869,119 283,150 390,275 525,347 243,129 461,134 1124,134l2521 0 2521 0c663,0 881,-5 1124,-134 135,-72 242,-197 525,-347 668,-353 1574,-187 1869,-119 -658,-161 -1276,-216 -1670,-62 -788,307 -518,533 -1590,533l-2779 0z"/>
    <path class="fil18" d="M9419 15295c314,0 627,-88 627,-265 0,-264 0,-529 0,-793 0,-77 63,-139 140,-139 265,0 531,0 796,0 349,0 349,-1255 0,-1255 -265,0 -531,0 -796,0 -77,0 -140,-62 -140,-139 0,-265 0,-531 0,-796 0,-175 -313,-262 -627,-262l0 3649z"/>
    <path class="fil19" d="M8955 12141c0,182 0,649 0,831 0,53 -43,96 -96,96 -182,0 -639,0 -821,0 -242,0 -242,861 0,861 182,0 639,0 821,0 53,0 96,43 96,96 0,181 0,660 0,842 0,242 861,243 861,0 0,-182 0,-661 0,-842 0,-53 43,-96 96,-96 182,0 653,0 835,0 240,0 240,-861 0,-861 -182,0 -653,0 -835,0 -53,0 -96,-43 -96,-96 0,-182 0,-649 0,-831 0,-240 -861,-239 -861,0z"/>
    <path class="fil4" d="M8989 12113c0,183 0,649 0,832 0,52 -43,95 -95,95 -182,0 -640,0 -821,0 -242,0 -243,862 0,862 181,0 639,0 821,0 52,0 95,43 95,95 0,182 0,661 0,842 0,243 861,243 861,0 0,-181 0,-660 0,-842 0,-52 44,-95 96,-95 182,0 654,0 836,0 240,0 239,-862 0,-862 -182,0 -654,0 -836,0 -52,0 -96,-43 -96,-95 0,-183 0,-649 0,-832 0,-240 -861,-239 -861,0z"/>
    <circle class="fil20" cx="6057" cy="9348" r="2250"/>
    <circle class="fil21" cx="6229" cy="9315" r="2003"/>
    <circle class="fil22" cx="6304" cy="9348" r="1928"/>
    <circle class="fil23" cx="6304" cy="9348" r="1705"/>
    <circle class="fil24" cx="6263" cy="9303" r="1393"/>
    <circle class="fil18" cx="6304" cy="9348" r="1393"/>
    <circle class="fil4" cx="6304" cy="9348" r="1047"/>
    <circle class="fil25" cx="6304" cy="9348" r="910"/>
    <circle class="fil5" cx="16117" cy="13387" r="2334"/>
    <circle class="fil21" cx="16125" cy="13292" r="2003"/>
    <circle class="fil22" cx="16201" cy="13323" r="1928"/>
    <circle class="fil23" cx="16201" cy="13323" r="1705"/>
    <circle class="fil19" cx="16146" cy="13292" r="1393"/>
    <circle class="fil18" cx="16201" cy="13323" r="1393"/>
    <circle class="fil5" cx="16201" cy="13323" r="1047"/>
    <circle class="fil25" cx="16201" cy="13323" r="910"/>
    <path class="fil19" d="M10504 9450c55,189 229,328 436,328 251,0 454,-204 454,-454 0,-68 -14,-131 -41,-189 12,40 18,83 18,126 0,251 -203,454 -454,454 -183,0 -341,-109 -413,-265z"/>
    <path class="fil19" d="M14215 9432c54,190 229,328 436,328 250,0 454,-203 454,-454 0,-67 -15,-131 -41,-188 11,40 18,82 18,126 0,251 -204,454 -454,454 -184,0 -342,-109 -413,-266z"/>
    <path class="fil19" d="M17503 8648c-373,0 -675,303 -675,676 0,176 67,336 177,456 -95,-116 -152,-265 -152,-427 0,-373 303,-675 676,-675 197,0 374,84 497,219 -124,-152 -312,-249 -523,-249z"/>
    <path class="fil19" d="M19268 6884c-373,0 -675,302 -675,675 0,176 67,336 177,456 -95,-116 -152,-265 -152,-427 0,-373 302,-675 675,-675 197,0 374,84 498,219 -124,-151 -312,-248 -523,-248z"/>
    <path class="fil19" d="M21032 8648c-372,0 -675,303 -675,676 0,176 68,336 178,456 -95,-116 -152,-265 -152,-427 0,-373 302,-675 675,-675 197,0 374,84 498,219 -124,-152 -313,-249 -524,-249z"/>
    <path class="fil19" d="M19271 10413c-373,0 -675,302 -675,675 0,176 67,336 177,457 -95,-117 -152,-265 -152,-427 0,-373 302,-676 675,-676 197,0 375,85 498,219 -124,-151 -312,-248 -523,-248z"/>
   </g>
  </g>
 </g>
</svg>
