<svg width="17" height="17" viewBox="0 0 17 17" fill="none" xmlns="http://www.w3.org/2000/svg">
<path d="M16.7866 7.98079L9.10429 0.576561C8.94295 0.42106 8.72831 0.335388 8.50013 0.335388C8.2718 0.335388 8.05716 0.420983 7.89589 0.576561L0.213502 7.98079C-0.0438212 8.22873 -0.0137515 8.44191 0.027008 8.54311C0.0678444 8.64424 0.189661 8.82035 0.54696 8.82035H1.41198V15.4011C1.41198 16.086 2.0023 16.6646 2.67076 16.6646H6.56459V12.2042H10.3329V16.6646H14.3293C14.9999 16.6646 15.5624 16.0742 15.5624 15.4011V8.82035H16.4531C16.8104 8.82035 16.9321 8.64424 16.973 8.54311C17.0138 8.44191 17.0439 8.2288 16.7866 7.98079Z" fill="#97ABB4"/>
</svg>
