<svg width="11" height="11" viewBox="0 0 11 11" fill="none" xmlns="http://www.w3.org/2000/svg">
<g clip-path="url(#clip0)">
<path d="M0.966269 1.31798H9.53373C10.0665 1.31798 10.5 1.75143 10.5 2.2849C10.5 2.81769 10.0665 3.25117 9.53373 3.25117H0.966269C0.433475 3.25117 1.90735e-06 2.81769 1.90735e-06 2.2849C1.90735e-06 1.75143 0.433475 1.31798 0.966269 1.31798Z" fill="#71858D"/>
<path d="M0.966269 4.2834H9.53373C10.0665 4.2834 10.5 4.71685 10.5 5.25032C10.5 5.78312 10.0665 6.21659 9.53373 6.21659H0.966269C0.433475 6.21659 1.90735e-06 5.78312 1.90735e-06 5.25032C1.90735e-06 4.71685 0.433475 4.2834 0.966269 4.2834Z" fill="#71858D"/>
<path d="M0.966269 7.24884H9.53373C10.0665 7.24884 10.5 7.68231 10.5 8.21576C10.5 8.74856 10.0665 9.18203 9.53373 9.18203H0.966269C0.433475 9.18203 1.90735e-06 8.74856 1.90735e-06 8.21576C1.90735e-06 7.68231 0.433475 7.24884 0.966269 7.24884Z" fill="#71858D"/>
</g>
<defs>
<clipPath id="clip0">
<rect width="10.5" height="10.5" fill="white" transform="matrix(-1 0 0 1 10.5 0)"/>
</clipPath>
</defs>
</svg>
