<svg width="17" height="17" viewBox="0 0 17 17" fill="none" xmlns="http://www.w3.org/2000/svg">
<path d="M6.55208 0H1.23958C0.556042 0 0 0.556042 0 1.23958V4.42708C0 5.11063 0.556042 5.66667 1.23958 5.66667H6.55208C7.23563 5.66667 7.79167 5.11063 7.79167 4.42708V1.23958C7.79167 0.556042 7.23563 0 6.55208 0Z" fill="#97ABB4"/>
<path d="M6.55208 7.08334H1.23958C0.556042 7.08334 0 7.63939 0 8.32293V15.7604C0 16.444 0.556042 17 1.23958 17H6.55208C7.23563 17 7.79167 16.444 7.79167 15.7604V8.32293C7.79167 7.63939 7.23563 7.08334 6.55208 7.08334Z" fill="#97ABB4"/>
<path d="M15.7601 11.3333H10.4476C9.76405 11.3333 9.20801 11.8894 9.20801 12.5729V15.7604C9.20801 16.444 9.76405 17 10.4476 17H15.7601C16.4436 17 16.9997 16.444 16.9997 15.7604V12.5729C16.9997 11.8894 16.4436 11.3333 15.7601 11.3333Z" fill="#97ABB4"/>
<path d="M15.7601 0H10.4476C9.76405 0 9.20801 0.556042 9.20801 1.23958V8.67708C9.20801 9.36062 9.76405 9.91666 10.4476 9.91666H15.7601C16.4436 9.91666 16.9997 9.36062 16.9997 8.67708V1.23958C16.9997 0.556042 16.4436 0 15.7601 0Z" fill="#97ABB4"/>
</svg>
