<svg width="11" height="11" viewBox="0 0 11 11" fill="none" xmlns="http://www.w3.org/2000/svg">
<g clip-path="url(#clip0)">
<path d="M4.25 0H1.25C0.8358 0 0.5 0.3358 0.5 0.75V3.75C0.5 4.1642 0.8358 4.5 1.25 4.5H4.25C4.6642 4.5 5 4.1642 5 3.75V0.75C5 0.3358 4.6642 0 4.25 0Z" fill="white"/>
<path d="M4.25 6H1.25C0.8358 6 0.5 6.3358 0.5 6.75V9.75C0.5 10.1642 0.8358 10.5 1.25 10.5H4.25C4.6642 10.5 5 10.1642 5 9.75V6.75C5 6.3358 4.6642 6 4.25 6Z" fill="white"/>
<path d="M10.25 0H7.25C6.8358 0 6.5 0.3358 6.5 0.75V3.75C6.5 4.1642 6.8358 4.5 7.25 4.5H10.25C10.6642 4.5 11 4.1642 11 3.75V0.75C11 0.3358 10.6642 0 10.25 0Z" fill="white"/>
<path d="M10.25 6H7.25C6.8358 6 6.5 6.3358 6.5 6.75V9.75C6.5 10.1642 6.8358 10.5 7.25 10.5H10.25C10.6642 10.5 11 10.1642 11 9.75V6.75C11 6.3358 10.6642 6 10.25 6Z" fill="white"/>
</g>
<defs>
<clipPath id="clip0">
<rect width="10.5" height="10.5" fill="white" transform="translate(0.5)"/>
</clipPath>
</defs>
</svg>
