<svg width="17" height="17" viewBox="0 0 17 17" fill="none" xmlns="http://www.w3.org/2000/svg">
<path d="M15.7604 0.708344H1.23959C0.556047 0.708344 0 1.26439 0 1.9479V3.71875C0 4.4023 0.556047 4.95834 1.23959 4.95834H15.7604C16.444 4.95834 17 4.4023 17 3.71875V1.9479C17 1.26439 16.444 0.708344 15.7604 0.708344Z" fill="#97ABB4"/>
<path d="M0.53125 7.79166H5.13541C5.42866 7.79166 5.66666 7.55366 5.66666 7.26041C5.66666 6.96716 5.42866 6.72916 5.13541 6.72916H0.53125C0.238 6.72916 0 6.96716 0 7.26041C0 7.55366 0.238 7.79166 0.53125 7.79166Z" fill="#97ABB4"/>
<path d="M0.53125 9.91666H5.13541C5.42866 9.91666 5.66666 9.67866 5.66666 9.38541C5.66666 9.09216 5.42866 8.85416 5.13541 8.85416H0.53125C0.238 8.85416 0 9.09216 0 9.38541C0 9.67866 0.238 9.91666 0.53125 9.91666Z" fill="#97ABB4"/>
<path d="M0.53125 12.0417H5.13541C5.42866 12.0417 5.66666 11.8037 5.66666 11.5104C5.66666 11.2172 5.42866 10.9792 5.13541 10.9792H0.53125C0.238 10.9792 0 11.2172 0 11.5104C0 11.8037 0.238 12.0417 0.53125 12.0417Z" fill="#97ABB4"/>
<path d="M0.53125 14.1667H5.13541C5.42866 14.1667 5.66666 13.9287 5.66666 13.6354C5.66666 13.3422 5.42866 13.1042 5.13541 13.1042H0.53125C0.238 13.1042 0 13.3422 0 13.6354C0 13.9287 0.238 14.1667 0.53125 14.1667Z" fill="#97ABB4"/>
<path d="M0.53125 16.2917H5.13541C5.42866 16.2917 5.66666 16.0537 5.66666 15.7604C5.66666 15.4672 5.42866 15.2292 5.13541 15.2292H0.53125C0.238 15.2292 0 15.4672 0 15.7604C0 16.0537 0.238 16.2917 0.53125 16.2917Z" fill="#97ABB4"/>
<path d="M15.7606 6.72916H8.32309C7.64309 6.72916 7.0835 7.28875 7.0835 7.96875V15.0521C7.0835 15.7321 7.64309 16.2917 8.32309 16.2917H15.7606C16.4406 16.2917 17.0002 15.7321 17.0002 15.0521V7.96875C17.0002 7.28875 16.4406 6.72916 15.7606 6.72916ZM12.0418 9.20835C12.6297 9.20835 13.1043 9.68294 13.1043 10.2708C13.1043 10.8588 12.6297 11.3333 12.0418 11.3333C11.4539 11.3333 10.9793 10.8588 10.9793 10.2708C10.9793 9.68294 11.4539 9.20835 12.0418 9.20835ZM14.1668 13.6354C14.1668 13.9258 13.926 14.1667 13.6356 14.1667H10.4481C10.1577 14.1667 9.91684 13.9258 9.91684 13.6354V13.3733C9.91684 12.6367 10.5827 12.0417 11.4043 12.0417H12.6793C13.501 12.0417 14.1668 12.6367 14.1668 13.3733V13.6354Z" fill="#97ABB4"/>
</svg>
