<?xml version="1.0" encoding="UTF-8"?>
<!DOCTYPE svg PUBLIC "-//W3C//DTD SVG 1.1//EN" "http://www.w3.org/Graphics/SVG/1.1/DTD/svg11.dtd">
<!-- Creator: CorelDRAW X7 -->
<svg xmlns="http://www.w3.org/2000/svg" xml:space="preserve" width="256mm" height="256mm" version="1.1" style="shape-rendering:geometricPrecision; text-rendering:geometricPrecision; image-rendering:optimizeQuality; fill-rule:evenodd; clip-rule:evenodd"
viewBox="0 0 25600 25600"
 xmlns:xlink="http://www.w3.org/1999/xlink">
 <defs>
  <style type="text/css">
   <![CDATA[
    .fil9 {fill:#101123}
    .fil6 {fill:#414869}
    .fil7 {fill:#515055}
    .fil13 {fill:#657691}
    .fil2 {fill:dimgray}
    .fil12 {fill:#718099}
    .fil10 {fill:#84838A}
    .fil11 {fill:#95A4BF}
    .fil1 {fill:#A3A3A3}
    .fil3 {fill:#AEAEBD}
    .fil4 {fill:#C5CBDB}
    .fil8 {fill:#D6D6D9}
    .fil0 {fill:#DEDDDB}
    .fil5 {fill:white}
   ]]>
  </style>
 </defs>
 <g id="Слой_x0020_1">
  <metadata id="CorelCorpID_0Corel-Layer"/>
  <g id="_1829478560976">
   <g>
    <path class="fil0" d="M15590 24499c5528,0 10010,-99 10010,-220 0,-122 -4482,-220 -10010,-220 -1861,0 -3719,0 -5580,0 -5528,0 -10010,98 -10010,220 0,121 4482,220 10010,220 1860,0 3720,0 5580,0z"/>
    <path class="fil1" d="M14359 24434c5809,0 10433,-68 10433,-168 0,-99 -5251,-193 -10433,-193 -932,0 -1864,0 -2796,0 -5182,0 -10433,94 -10433,193 0,100 4624,168 10433,168 932,0 1864,0 2796,0z"/>
    <path class="fil2" d="M24257 24255c0,-206 -22914,-206 -22914,0 0,115 22914,115 22914,0z"/>
   </g>
   <g>
    <g>
     <path class="fil3" d="M11630 1666l708 10551c22,450 14,1002 36,1451 76,1574 184,3045 260,4619l1335 -109 -362 -4633 -165 -1539 -766 -10411 -1046 71z"/>
     <path class="fil4" d="M12669 1708c47,-285 -147,-553 -432,-600 -285,-46 -553,147 -600,432 -50,308 245,585 418,808l237 -23c102,-142 345,-417 377,-617z"/>
     <polygon class="fil5" points="12949,13627 12055,2348 12292,2325 "/>
    </g>
    <path class="fil3" d="M409 2854l3452 9996c139,427 275,962 414,1390 487,1499 977,2890 1464,4389l1259 -456 -1565 -4375 -563 -1441 -3470 -9846 -991 343z"/>
    <path class="fil4" d="M1423 2622c-30,-287 -287,-496 -574,-466 -288,30 -496,287 -466,575 33,310 390,500 615,669l222 -84c62,-164 224,-493 203,-694z"/>
    <polygon class="fil5" points="4820,14050 998,3400 1220,3316 "/>
    <path class="fil3" d="M25192 2854l-3452 9996c-139,427 -275,962 -414,1390 -487,1499 -977,2890 -1463,4389l-1260 -456 1565 -4375 563 -1441 3470 -9846 991 343z"/>
    <path class="fil4" d="M24178 2622c30,-287 287,-496 574,-466 288,30 496,287 466,575 -32,310 -390,500 -615,669l-222 -84c-62,-164 -224,-493 -203,-694z"/>
    <polygon class="fil5" points="20781,14050 24603,3400 24381,3316 "/>
    <path class="fil6" d="M1 21757c8487,-595 17018,-621 25599,0l0 1403c-8555,1187 -17088,1197 -25599,0l0 -1403z"/>
    <path class="fil7" d="M3008 23359l19585 0 0 311c0,292 -239,512 -530,530 -6175,392 -12350,404 -18525,0 -291,-19 -530,-238 -530,-530l0 -311z"/>
    <path class="fil8" d="M3008 23254l19585 0 0 311c0,292 -239,512 -530,530 -6175,391 -12350,404 -18525,0 -291,-19 -530,-238 -530,-530l0 -311z"/>
    <path class="fil9" d="M1 23160c8511,1197 17044,1187 25599,0l0 -544c-8555,298 -17088,310 -25599,0l0 544z"/>
    <path class="fil10" d="M3016 23656c6511,698 13034,692 19570,-4 4,-28 7,-57 7,-87l0 -36c-6541,696 -13069,702 -19585,3l0 33c0,31 3,62 8,91z"/>
    <polygon class="fil9" points="1675,18714 14951,17556 23924,18714 23924,19193 1675,19193 "/>
    <polygon class="fil9" points="927,20073 13128,18714 24674,20073 24697,20594 904,20594 "/>
    <path class="fil11" d="M24673 20152l-3 -6 7 3 -3 -76 -79 -63 -575 -1044c-7536,-568 -15017,-570 -22441,0l-576 1047 -76 60 -3 76 5 -2 -3 5c7857,-598 15773,-596 23747,0zm-832 -1507l85 69 1 78 -5 -2 1 2c-7471,-558 -14888,-560 -22249,0l1 -78 75 -60 539 -984c6994,-538 13905,-535 21005,0l547 975zm1680 3049l79 63 0 80 -3 -2c-8579,-620 -17107,-594 -25593,0l-3 2 0 -2 -1 1 1 -2 0 -77 75 -60 739 -1343c7930,-609 15919,-607 23969,0l737 1340z"/>
    <g>
     <path class="fil12" d="M25600 21757l-815 -1482c-8049,-607 -16039,-609 -23969,0l-815 1482c8487,-595 17018,-621 25599,0z"/>
     <path class="fil12" d="M24674 20073l-653 -1186c-7536,-568 -15017,-570 -22441,0l-653 1186c7857,-598 15773,-595 23747,0z"/>
     <path class="fil12" d="M23924 18714l-629 -1123c-7100,-535 -14011,-537 -21005,0l-615 1123c7361,-561 14778,-559 22249,0z"/>
    </g>
    <g>
     <path class="fil13" d="M4983 18500c234,-13 468,-25 702,-36 194,-9 389,-18 583,-27 28,-1 56,-2 84,-4l11 -30 37 -101 322 -901 28 -80c-18,1 -37,2 -56,2 -446,20 -891,42 -1337,67 -5,13 -10,27 -14,41 -5,13 -9,26 -13,39 -107,317 -214,634 -321,953 -9,26 -17,51 -26,77z"/>
     <path class="fil13" d="M5738 18628c-270,13 -541,27 -812,41 -8,27 -17,54 -26,80 -49,147 -98,295 -147,444 -42,129 -85,258 -127,388 -9,27 -18,55 -26,83 -18,57 -36,116 -55,176 443,-23 885,-44 1327,-64l95 -265 114 -318 182 -511 29 -79c-184,8 -368,16 -552,25 0,0 -1,0 -2,0z"/>
     <path class="fil13" d="M5802 19973c-438,19 -876,41 -1314,64 -8,26 -16,53 -23,80 -46,159 -92,321 -138,477 -38,131 -77,258 -115,377l-189 547c399,-19 798,-37 1198,-54l340 -870 211 -541 12 -29 18 -51z"/>
    </g>
    <g>
     <path class="fil13" d="M12719 21301c384,0 767,2 1151,4l1 -1481 -1230 -5c1,26 2,52 3,79 3,121 7,242 11,364 4,106 10,218 17,332 14,231 32,474 47,707z"/>
     <path class="fil13" d="M13409 19628c162,0 324,2 486,3l-2 -438 -2 -377 -1 -272 0 -78c-428,-4 -856,-6 -1283,-5 0,8 0,17 0,25 1,18 1,36 1,53 2,74 4,147 5,221 4,144 7,288 11,433 4,144 8,288 12,432 257,1 515,1 773,3z"/>
     <path class="fil13" d="M12603 18294c428,0 857,1 1286,5l0 -120 -3 -532 -1 -375 -1 -78c-435,-4 -871,-6 -1306,-5 1,26 1,52 2,79 4,164 7,327 11,491 4,175 8,349 12,524 0,4 0,7 0,11z"/>
    </g>
    <g>
     <path class="fil13" d="M20602 18500c-234,-13 -468,-25 -702,-36 -194,-9 -389,-18 -583,-27 -28,-1 -56,-2 -84,-4l-11 -30 -37 -101 -322 -901 -28 -80c18,1 37,2 56,2 446,20 891,42 1337,67 5,13 10,27 14,41 5,13 9,26 13,39 107,317 214,634 321,953 9,26 17,51 26,77z"/>
     <path class="fil13" d="M19847 18628c270,13 541,27 812,41 9,27 17,54 26,80 49,147 98,295 147,444 42,129 85,258 127,388 9,27 18,55 26,83 18,57 37,116 55,176 -443,-23 -885,-44 -1327,-64l-95 -265 -114 -318 -182 -511 -29 -79c184,8 368,16 552,25 0,0 1,0 2,0z"/>
     <path class="fil13" d="M19783 19973c438,19 876,41 1314,64 8,26 16,53 23,80 46,159 92,321 138,477 38,131 77,258 115,377l189 547c-399,-19 -798,-37 -1198,-54l-340 -870 -211 -541 -12 -29 -18 -51z"/>
    </g>
   </g>
  </g>
 </g>
</svg>
