<svg width="20" height="18" viewBox="0 0 20 18" fill="none" xmlns="http://www.w3.org/2000/svg">
<path d="M18.9886 3.98801L4.55218 3.98552L3.94709 1.90233C3.85689 1.59173 3.60686 1.34634 3.29464 1.2619L1.17691 0.689254C1.0971 0.667677 1.01504 0.656731 0.933022 0.656731C0.512759 0.656731 0.14255 0.940317 0.0327646 1.34638C-0.0323214 1.58693 0.000241399 1.83847 0.124385 2.05459C0.248488 2.27071 0.449299 2.42555 0.689891 2.4906L2.30141 2.92637L5.57301 14.7268C5.10701 14.9567 4.80486 15.4332 4.80486 15.9636C4.80486 16.7244 5.42376 17.3432 6.18444 17.3432C6.94513 17.3432 7.56406 16.7243 7.56406 15.9636C7.56406 15.9457 7.5637 15.9278 7.56303 15.9098H14.223C14.2223 15.9278 14.222 15.9458 14.222 15.9636C14.222 16.7244 14.8409 17.3432 15.6016 17.3432C16.3623 17.3432 16.9812 16.7243 16.9812 15.9636C16.9812 15.2644 16.4496 14.6783 15.7693 14.5946C14.1139 14.3272 7.35801 14.0005 7.35801 14.0005L7.1361 13.1322H15.5655C15.9965 13.1322 16.3797 12.8426 16.4974 12.428L18.3191 6.01076H18.9886C19.5472 6.01076 20 5.55793 20 4.99937C20 4.4408 19.5471 3.98801 18.9886 3.98801ZM8.25177 10.9847H6.67165C6.62846 10.9839 6.56504 10.9939 6.53613 10.8922C6.4994 10.7631 6.44796 10.5858 6.44796 10.5858L5.20958 6.22335C5.20355 6.20213 5.20791 6.17889 5.2212 6.16132C5.23457 6.14363 5.25575 6.13308 5.27792 6.13308H7.19829C7.23177 6.13308 7.26024 6.15588 7.2675 6.18856L8.31487 10.8785L8.31868 10.893C8.32066 10.8994 8.32165 10.9064 8.32165 10.9136C8.32165 10.9525 8.29036 10.9841 8.25177 10.9847ZM12.2842 6.21954L11.4307 10.9293C11.4234 10.9619 11.395 10.9847 11.3615 10.9847H10.1696C10.1361 10.9847 10.1076 10.9618 10.1003 10.9292L9.24689 6.21938C9.24217 6.19836 9.24725 6.17659 9.26086 6.15965C9.27438 6.14279 9.29457 6.13312 9.31618 6.13312H12.2149C12.2365 6.13312 12.2567 6.14279 12.2703 6.15977C12.2838 6.17659 12.2889 6.19844 12.2842 6.21954ZM16.3215 6.22351L14.9845 10.9331C14.9759 10.9635 14.9478 10.9848 14.9162 10.9848H13.2811C13.2594 10.9848 13.2392 10.9751 13.2257 10.9582C13.2121 10.9413 13.2071 10.9194 13.2118 10.8983L14.2635 6.1886C14.2707 6.15648 14.2998 6.13316 14.3328 6.13316H16.2532C16.2753 6.13316 16.2964 6.14367 16.3098 6.16132C16.3232 6.17893 16.3275 6.20217 16.3215 6.22351Z" fill="#343434"/>
</svg>
