<svg width="20" height="20" viewBox="0 0 20 20" fill="none" xmlns="http://www.w3.org/2000/svg">
<path d="M14.3496 15.0688C13.3211 15.0688 12.4873 15.9025 12.4873 16.9311C12.4873 17.9596 13.3209 18.7932 14.3494 18.7934C15.3779 18.7934 16.2117 17.9596 16.2117 16.9311C16.2106 15.9032 15.3775 15.0701 14.3496 15.0688Z" fill="#343434"/>
<path d="M19.6871 3.99975H3.72264L3.41869 2.76283C3.19243 1.833 2.35757 1.18005 1.40068 1.18407H0.312853C0.140016 1.18407 0 1.32426 0 1.49692C0 1.66976 0.140016 1.80978 0.312853 1.80978H1.40068C2.07021 1.80855 2.65332 2.26631 2.81114 2.91698L4.98121 11.7972C5.20677 12.7291 6.04093 13.3855 6.99957 13.3853H16.282C17.2532 13.3874 18.0954 12.7144 18.3075 11.7668L19.9921 4.39553C20.0134 4.30073 19.9912 4.20122 19.9318 4.12423C19.8732 4.04811 19.7833 4.00237 19.6871 3.99975Z" fill="#343434"/>
<path d="M8.30466 15.0688C7.27619 15.0688 6.44238 15.9025 6.44238 16.9311C6.44238 17.9596 7.27602 18.7932 8.30449 18.7934C9.33296 18.7934 10.1668 17.9596 10.1668 16.9311C10.1657 15.9032 9.33261 15.0701 8.30466 15.0688Z" fill="#343434"/>
</svg>
