<?xml version="1.0" encoding="UTF-8"?>
<!DOCTYPE svg PUBLIC "-//W3C//DTD SVG 1.1//EN" "http://www.w3.org/Graphics/SVG/1.1/DTD/svg11.dtd">
<!-- Creator: CorelDRAW X7 -->
<svg xmlns="http://www.w3.org/2000/svg" xml:space="preserve" width="256mm" height="256mm" version="1.1" style="shape-rendering:geometricPrecision; text-rendering:geometricPrecision; image-rendering:optimizeQuality; fill-rule:evenodd; clip-rule:evenodd"
viewBox="0 0 25600 25600"
 xmlns:xlink="http://www.w3.org/1999/xlink">
 <defs>
  <style type="text/css">
   <![CDATA[
    .fil36 {fill:#0C0C0C}
    .fil18 {fill:#0E0E10}
    .fil38 {fill:#101115}
    .fil39 {fill:#1049A3}
    .fil37 {fill:#11141B}
    .fil17 {fill:#161616}
    .fil3 {fill:#201E1F}
    .fil7 {fill:#2B2A29}
    .fil19 {fill:#33618C}
    .fil26 {fill:#343331}
    .fil41 {fill:#3C3C3C}
    .fil4 {fill:#3D3B3C}
    .fil33 {fill:#476D92}
    .fil32 {fill:#494C51}
    .fil35 {fill:#4B494A}
    .fil31 {fill:#4F4F4F}
    .fil5 {fill:#585755}
    .fil24 {fill:#5B5B5E}
    .fil9 {fill:#5B5B5E}
    .fil25 {fill:#676664}
    .fil2 {fill:dimgray}
    .fil12 {fill:#6B6A68}
    .fil34 {fill:#6B80BF}
    .fil8 {fill:#6F6F73}
    .fil42 {fill:#777370}
    .fil11 {fill:#787673}
    .fil27 {fill:#8F8B88}
    .fil16 {fill:#8FE0DB}
    .fil28 {fill:#949492}
    .fil40 {fill:#999490}
    .fil1 {fill:#A3A3A3}
    .fil30 {fill:#B8B6B7}
    .fil20 {fill:#BDDB6B}
    .fil6 {fill:#C2C2C2}
    .fil14 {fill:#D9F095}
    .fil0 {fill:#DEDDDB}
    .fil22 {fill:#E8B5DF}
    .fil23 {fill:#E9E9E9}
    .fil13 {fill:#EDCAE6}
    .fil29 {fill:#F1E3D8}
    .fil21 {fill:#F4CE6D}
    .fil10 {fill:#FFE299}
    .fil15 {fill:white}
   ]]>
  </style>
 </defs>
 <g id="Слой_x0020_1">
  <metadata id="CorelCorpID_0Corel-Layer"/>
  <g id="_1829556747488">
   <path class="fil0" d="M15723 25600c3021,0 5471,-88 5471,-196 0,-109 -2450,-196 -5471,-196 -2563,0 -4970,-245 -8343,-245 -3668,0 -6642,87 -6642,196 0,108 2974,196 6642,196 3166,0 4590,245 8343,245z"/>
   <path class="fil1" d="M14867 25543c2778,0 4989,-61 4989,-150 0,-89 -2511,-172 -4989,-172 -2102,0 -4075,-201 -6842,-201 -3008,0 -5447,72 -5447,161 0,89 2439,161 5447,161 2597,0 4064,201 6842,201z"/>
   <path class="fil2" d="M14252 25459c2339,0 4805,-16 4805,-76 0,-61 -2718,-143 -4805,-143 -1771,0 -3433,-136 -5763,-136 -2533,0 -4587,49 -4587,109 0,60 2054,109 4587,109 2187,0 3423,137 5763,137z"/>
   <g>
    <rect class="fil3" x="1269" y="1227" width="11929" height="24128" rx="1836" ry="1807"/>
    <rect class="fil4" x="1338" y="1296" width="11791" height="23990" rx="1814" ry="1797"/>
    <rect class="fil5" x="1575" y="1536" width="11316" height="23510" rx="1418" ry="1434"/>
    <g>
     <path class="fil6" d="M13221 10073l0 0c-8,0 -16,-1 -24,-3l0 -2814c8,-2 16,-3 24,-3l0 0c51,0 92,42 92,93l0 2635c0,51 -41,92 -92,92z"/>
     <path class="fil7" d="M13221 10073l0 0c-8,0 -16,-1 -24,-3l0 -67c8,2 16,3 24,3l0 0c51,0 92,-42 92,-93l0 68c0,51 -41,92 -92,92zm-24 -2817l0 68c8,-2 16,-3 24,-3l0 0c51,0 92,41 92,92l0 -67c0,-51 -41,-93 -92,-93l0 0c-8,0 -16,1 -24,3z"/>
    </g>
    <path class="fil6" d="M1246 10846l0 0c-41,0 -75,-34 -75,-75l0 -1755c0,-42 34,-75 75,-75l0 0c8,0 15,1 23,3l0 1898c-8,3 -15,4 -23,4z"/>
    <path class="fil7" d="M1246 10846l0 0c-41,0 -75,-34 -75,-75l0 -55c0,41 34,75 75,75l0 0c41,0 75,-34 75,-75l0 55c0,41 -34,75 -75,75zm-75 -1775l0 -55c0,-42 34,-75 75,-75l0 0c41,0 75,33 75,75l0 55c0,-42 -34,-75 -75,-75l0 0c-41,0 -75,33 -75,75z"/>
    <path class="fil6" d="M1246 8534l0 0c-41,0 -75,-34 -75,-76l0 -1755c0,-41 34,-75 75,-75l0 0c8,0 15,1 23,4l0 1898c-8,2 -15,4 -23,4z"/>
    <path class="fil7" d="M1246 8534l0 0c-41,0 -75,-34 -75,-76l0 -55c0,42 34,76 75,76l0 0c41,0 75,-34 75,-76l0 55c0,42 -34,76 -75,76zm-75 -1776l0 -55c0,-41 34,-75 75,-75l0 0c41,0 75,34 75,75l0 55c0,-41 -34,-75 -75,-75l0 0c-41,0 -75,34 -75,75z"/>
    <path class="fil6" d="M1246 5862l0 0c-41,0 -75,-33 -75,-75l0 -815c0,-41 34,-75 75,-75l0 0c8,0 15,1 23,3l0 959c-8,2 -15,3 -23,3z"/>
    <path class="fil7" d="M1246 5862l0 0c-41,0 -75,-33 -75,-75l0 -55c0,42 34,75 75,75l0 0c41,0 75,-33 75,-75l0 55c0,42 -34,75 -75,75zm-75 -835l0 -55c0,-41 34,-75 75,-75l0 0c41,0 75,34 75,75l0 55c0,-42 -34,-75 -75,-75l0 0c-41,0 -75,33 -75,75z"/>
    <g>
     <path class="fil8" d="M3115 1355c-418,0 -651,74 -981,347 435,-171 489,-218 982,-218l7605 0 0 -129 -7606 0zm7741 129l556 0c493,0 547,47 981,218 -329,-273 -562,-347 -980,-347l-557 0 0 129z"/>
     <path class="fil8" d="M11351 25226c418,0 651,-73 981,-346 -435,170 -489,218 -982,218l-7605 0 0 128 7606 0zm-7741 -128l-556 0c-493,0 -547,-48 -981,-218 329,273 562,346 980,346l557 0 0 -128z"/>
     <path class="fil8" d="M12956 2970l0 560 141 0 0 -524c0,-528 -283,-954 -704,-1213 355,273 563,733 563,1177zm0 717l0 19156 141 0 0 -19156 -141 0zm0 19313l0 611c0,445 -208,905 -563,1177 421,-259 704,-684 704,-1212l0 -576 -141 0z"/>
     <path class="fil9" d="M1510 2970l0 560 -141 0 0 -524c0,-528 282,-954 704,-1213 -355,273 -563,733 -563,1177zm0 717l0 19156 -141 0 0 -19156 141 0zm0 19313l0 611c0,445 208,905 563,1177 -422,-259 -704,-684 -704,-1212l0 -576 141 0z"/>
    </g>
    <rect class="fil10" x="1837" y="1780" width="10791" height="23022" rx="1353" ry="1405"/>
    <path class="fil11" d="M11274 1536l136 0c769,0 1397,629 1397,1397l0 20715c0,769 -628,1398 -1397,1398l-136 0c743,0 1351,-608 1351,-1352l0 -20806c0,-744 -608,-1352 -1351,-1352z"/>
    <path class="fil12" d="M3056 1536l136 0c-743,0 -1352,608 -1352,1352l0 20806c0,744 609,1352 1352,1352l-136 0c-769,0 -1397,-629 -1397,-1398l0 -20715c0,-768 628,-1397 1397,-1397z"/>
    <g>
     <path class="fil13" d="M12494 24036l-3407 -6318 -6395 6988c154,62 322,96 498,96l8086 0c534,0 998,-314 1218,-766z"/>
     <polygon class="fil14" points="12625,20447 12628,3612 3089,9244 "/>
     <path class="fil15" d="M1837 8802l1252 442 9539 -5632 0 -480c0,-743 -608,-1352 -1352,-1352l-8086 0c-744,0 -1353,609 -1353,1352l0 5670z"/>
     <polygon class="fil16" points="1837,23449 4258,10617 3089,9244 1837,8802 "/>
    </g>
    <g>
     <rect class="fil17" x="5804" y="2218" width="2130" height="215" rx="4172" ry="4172"/>
     <circle class="fil18" cx="8483" cy="2321" r="179"/>
     <circle class="fil19" cx="8483" cy="2321" r="116"/>
    </g>
   </g>
   <g>
    <polygon class="fil20" points="12625,20447 12628,3612 12625,3613 11664,4181 8579,15693 "/>
    <path class="fil21" d="M12625 20447l-4046 -4754 -977 3648 1485 -1623 3407 6318c74,-152 120,-320 131,-497l0 -3092z"/>
    <path class="fil22" d="M12494 24036l-3407 -6318 -1485 1623 -613 2286c-261,975 323,1987 1298,2248l3312 888c394,-98 721,-369 895,-727z"/>
    <path class="fil23" d="M11664 4181l961 -568 3 -1 0 -480c0,-30 -1,-60 -3,-90 -23,-348 -179,-661 -418,-888l-543 2027z"/>
   </g>
   <g>
    <rect class="fil3" transform="matrix(0.818598 0.219343 -0.215942 0.805908 13752.1 -412.704)" width="14076" height="28919" rx="2166" ry="2166"/>
    <rect class="fil4" transform="matrix(0.809123 0.216804 -0.214709 0.801305 13800.9 -328.272)" width="14076" height="28919" rx="2166" ry="2166"/>
    <rect class="fil5" transform="matrix(0.776544 0.208074 -0.210412 0.785267 13968.1 -34.9429)" width="14076" height="28919" rx="1764" ry="1764"/>
    <g>
     <path class="fil6" d="M11440 8126l0 0c8,2 15,3 23,3l729 -2718c-7,-3 -15,-7 -22,-9l0 0c-50,-13 -101,17 -114,66l-682 2545c-13,49 17,100 66,113z"/>
     <path class="fil7" d="M11440 8126l0 0c8,2 15,3 23,3l18 -65c-8,0 -16,-1 -24,-3l0 0c-49,-13 -78,-64 -65,-113l-18 65c-13,49 17,100 66,113zm752 -2715l-18 66c-7,-4 -14,-7 -22,-9l0 0c-49,-14 -100,16 -113,65l17 -65c13,-49 64,-79 114,-66l0 0c7,2 15,6 22,9z"/>
    </g>
    <path class="fil6" d="M22807 11972l0 0c40,11 81,-13 92,-53l454 -1695c11,-40 -13,-82 -53,-92l0 0c-8,-2 -15,-3 -23,-3l-491 1834c6,4 13,7 21,9z"/>
    <path class="fil7" d="M22807 11972l0 0c40,11 81,-13 92,-53l14 -53c-11,40 -52,64 -92,53l0 0c-40,-11 -64,-52 -53,-92l-14 53c-11,40 13,81 53,92zm532 -1695l14 -53c11,-40 -13,-82 -53,-92l0 0c-40,-11 -82,13 -92,53l-14 53c10,-40 52,-64 92,-53l0 0c40,10 64,52 53,92z"/>
    <path class="fil6" d="M23405 9738l0 0c40,11 82,-13 92,-53l455 -1695c10,-40 -14,-81 -54,-92l0 0c-7,-2 -15,-3 -22,-2l-492 1833c7,4 14,7 21,9z"/>
    <path class="fil7" d="M23405 9738l0 0c40,11 82,-13 92,-53l15 -53c-11,40 -53,64 -93,53l0 0c-40,-10 -63,-52 -53,-92l-14 53c-11,40 13,82 53,92zm532 -1695l15 -53c10,-40 -14,-81 -54,-92l0 0c-40,-11 -81,13 -92,53l-14 53c11,-40 52,-64 92,-53l0 0c40,11 64,52 53,92z"/>
    <path class="fil6" d="M24097 7158l0 0c39,11 81,-13 92,-53l211 -787c10,-40 -14,-82 -54,-93l0 0c-7,-2 -15,-2 -22,-2l-248 926c6,4 13,7 21,9z"/>
    <path class="fil7" d="M24097 7158l0 0c39,11 81,-13 92,-53l14 -53c-11,40 -52,64 -92,53l0 0c-40,-10 -64,-52 -53,-92l-15 53c-10,40 14,82 54,92zm288 -787l15 -53c10,-40 -14,-82 -54,-93l0 0c-39,-10 -81,14 -92,54l-14 53c11,-40 52,-64 92,-53l0 0c40,10 64,52 53,92z"/>
    <g>
     <path class="fil8" d="M23458 2321c404,108 610,240 857,588 -375,-277 -415,-337 -891,-464l-7346 -1969 33 -124 7347 1969zm-7511 -1880l-537 -143c-476,-128 -540,-96 -1004,-44 389,-178 633,-189 1036,-81l538 144 -33 124z"/>
     <path class="fil8" d="M9324 23247c-404,-108 -610,-240 -857,-588 375,277 415,337 891,464l7346 1969 -33 124 -7347 -1969zm7511 1880l536 143c477,128 541,96 1005,44 -389,178 -633,189 -1037,81l-538 -144 34 -124z"/>
     <path class="fil24" d="M13534 1334l-145 540 -136 -36 136 -506c137,-510 519,-848 993,-989 -413,171 -733,562 -848,991zm-185 692l-4958 18503 -136 -36 4958 -18503 136 36zm-4999 18655l-158 591c-115,429 -33,927 238,1282 -339,-359 -502,-843 -365,-1353l149 -556 136 36z"/>
     <path class="fil8" d="M24590 4296l-145 541 136 36 136 -506c137,-510 -26,-994 -366,-1353 272,355 354,853 239,1282zm-185 692l-4958 18504 136 36 4958 -18503 -136 -37zm-4999 18655l-158 591c-115,429 -435,820 -848,992 474,-142 856,-480 993,-990l149 -556 -136 -37z"/>
    </g>
    <path class="fil25" d="M18389 25159c376,-169 677,-499 792,-926l5351 -19969c201,-754 -250,-1535 -1003,-1737l-8191 -2195c-326,-87 -658,-52 -945,77l82 506 3914 24244z"/>
    <g>
     <rect class="fil26" transform="matrix(0.805908 0.215942 -0.215942 0.805908 14140.6 525.49)" width="5636" height="6033" rx="1500" ry="1500"/>
     <rect class="fil27" transform="matrix(0.805908 0.215942 -0.215942 0.805908 14186.9 480.75)" width="5636" height="6033" rx="1500" ry="1500"/>
     <rect class="fil26" transform="matrix(0.755234 0.202364 -0.202364 0.755234 14288.7 671.857)" width="5636" height="6033" rx="1500" ry="1500"/>
     <circle class="fil28" transform="matrix(0.867902 0.232554 -0.232554 0.867902 17387.8 2132.67)" r="559"/>
     <circle class="fil29" transform="matrix(0.672396 0.180168 -0.180168 0.672396 17387.8 2132.67)" r="559"/>
     <circle class="fil30" transform="matrix(1.77384 0.475299 -0.475299 1.77384 16935 3822.45)" r="559"/>
     <circle class="fil31" transform="matrix(1.37426 0.368232 -0.368232 1.37426 16935 3822.45)" r="559"/>
     <circle class="fil32" transform="matrix(0.967941 0.259359 -0.259359 0.967941 16935 3822.46)" r="559"/>
     <circle class="fil33" transform="matrix(0.51492 0.137973 -0.137973 0.51492 16935 3822.46)" r="559"/>
     <circle class="fil34" transform="matrix(0.228796 0.0613057 -0.0613057 0.228796 16935 3822.46)" r="559"/>
     <circle class="fil35" transform="matrix(1.77384 0.475299 -0.475299 1.77384 14507.7 4451.04)" r="559"/>
     <circle class="fil36" transform="matrix(1.37426 0.368232 -0.368232 1.37426 14507.7 4451.04)" r="559"/>
     <circle class="fil37" transform="matrix(0.790369 0.211779 -0.211779 0.790369 14507.7 4451.04)" r="559"/>
     <circle class="fil38" transform="matrix(0.514897 0.137966 -0.137966 0.514897 14507.7 4451.04)" r="559"/>
     <path class="fil39" d="M14486 4688c113,10 221,-62 252,-175 30,-114 -27,-230 -130,-278l-42 155c22,20 32,52 24,83 -9,31 -33,53 -62,60l-42 155zm73 -469c-124,-28 -248,47 -281,170 -33,124 37,251 158,289l39 -149c-39,-16 -60,-58 -49,-100 11,-42 51,-68 93,-62l40 -148z"/>
     <circle class="fil35" transform="matrix(1.77384 0.475299 -0.475299 1.77384 15150.2 2053.03)" r="559"/>
     <circle class="fil36" transform="matrix(1.37426 0.368232 -0.368232 1.37426 15150.2 2053.03)" r="559"/>
     <circle class="fil37" transform="matrix(0.790369 0.211779 -0.211779 0.790369 15150.2 2053.04)" r="559"/>
     <circle class="fil38" transform="matrix(0.514897 0.137966 -0.137966 0.514897 15150.2 2053.04)" r="559"/>
     <path class="fil39" d="M15129 2290c113,10 221,-62 251,-175 31,-114 -27,-230 -130,-278l-41 155c21,20 31,52 23,83 -8,31 -33,53 -62,60l-41 155zm72 -469c-123,-28 -248,47 -281,170 -33,124 38,251 158,289l40 -149c-39,-16 -61,-58 -50,-100 11,-42 52,-68 93,-62l40 -148z"/>
     <circle class="fil40" transform="matrix(0.402947 0.107969 -0.107969 0.402947 16496.9 5457.53)" r="559"/>
     <circle class="fil41" transform="matrix(0.276538 0.074098 -0.074098 0.276538 16496.9 5457.53)" r="559"/>
    </g>
    <path class="fil30" d="M14885 3044c547,147 1110,-178 1257,-725 146,-548 -179,-1111 -726,-1257 -320,-86 -645,-11 -889,176l43 271c195,-207 493,-303 786,-224 424,114 676,550 562,974 -113,424 -549,676 -974,562 -61,-16 -119,-40 -173,-69l44 271c23,8 46,15 70,21z"/>
    <path class="fil31" d="M15276 4657c92,-343 -55,-693 -339,-875l189 1169c68,-84 120,-183 150,-294z"/>
    <path class="fil30" d="M14937 3782c284,182 431,532 339,875 -30,111 -82,210 -150,294l46 283c154,-131 271,-308 327,-517 136,-507 -132,-1027 -607,-1218l45 283z"/>
    <path class="fil42" d="M14892 3499c475,191 743,711 607,1218 -56,209 -173,386 -327,517l94 583 925 248c623,167 1270,-207 1437,-830l613 -2290c167,-623 -206,-1269 -829,-1436l-1990 -534c-323,-86 -651,-28 -916,134l21 129c244,-187 569,-262 889,-176 547,146 872,709 726,1257 -147,547 -710,872 -1257,725 -24,-6 -47,-13 -70,-21l77 476zm1777 1315c-547,-147 -872,-710 -725,-1257 146,-548 709,-873 1257,-726 547,147 872,710 725,1257 -146,548 -709,873 -1257,726zm-397 583c33,-124 161,-198 285,-165 125,34 198,162 165,286 -33,124 -161,198 -285,165 -125,-34 -199,-161 -165,-286zm1601 -3134c-72,268 -347,427 -615,355 -268,-72 -427,-347 -355,-615 71,-268 347,-427 615,-355 268,71 427,347 355,615z"/>
    <path class="fil11" d="M23336 2475l132 36c742,198 1187,969 988,1711l-5361 20010c-199,742 -969,1187 -1712,988l-131 -36c718,193 1463,-237 1655,-955l5385 -20098c193,-718 -237,-1463 -956,-1656z"/>
    <path class="fil12" d="M15399 348l131 36c-718,-193 -1463,237 -1655,956l-5385 20097c-193,718 237,1463 955,1656l-131 -36c-743,-198 -1187,-969 -988,-1711l5361 -20010c199,-742 969,-1187 1712,-988z"/>
   </g>
  </g>
 </g>
</svg>
