<?xml version="1.0" encoding="UTF-8"?>
<!DOCTYPE svg PUBLIC "-//W3C//DTD SVG 1.1//EN" "http://www.w3.org/Graphics/SVG/1.1/DTD/svg11.dtd">
<!-- Creator: CorelDRAW X7 -->
<svg xmlns="http://www.w3.org/2000/svg" xml:space="preserve" width="256mm" height="256mm" version="1.1" style="shape-rendering:geometricPrecision; text-rendering:geometricPrecision; image-rendering:optimizeQuality; fill-rule:evenodd; clip-rule:evenodd"
viewBox="0 0 25600 25600"
 xmlns:xlink="http://www.w3.org/1999/xlink">
 <defs>
  <style type="text/css">
   <![CDATA[
    .fil6 {fill:#0F0F0F}
    .fil9 {fill:#180D78}
    .fil13 {fill:#5E5E5E}
    .fil11 {fill:#696868}
    .fil2 {fill:dimgray}
    .fil21 {fill:#8FE0DB}
    .fil17 {fill:#979797}
    .fil5 {fill:#A1A1A1}
    .fil1 {fill:#A3A3A3}
    .fil10 {fill:#AE00CB}
    .fil16 {fill:#C5C5C5}
    .fil15 {fill:#D8D8D8}
    .fil20 {fill:#D9F095}
    .fil0 {fill:#DEDDDB}
    .fil18 {fill:#E6E6E6}
    .fil3 {fill:#EBEBEB}
    .fil19 {fill:#EDCAE6}
    .fil12 {fill:#EDEDED}
    .fil7 {fill:#FFE299}
    .fil14 {fill:white}
    .fil27 {fill:#1A9BD7;fill-rule:nonzero}
    .fil24 {fill:#3BB6BA;fill-rule:nonzero}
    .fil8 {fill:#3F3F3F;fill-rule:nonzero}
    .fil22 {fill:#737E81;fill-rule:nonzero}
    .fil25 {fill:#99C446;fill-rule:nonzero}
    .fil23 {fill:#A0599E;fill-rule:nonzero}
    .fil4 {fill:#E2E2E2;fill-rule:nonzero}
    .fil26 {fill:#FAB927;fill-rule:nonzero}
   ]]>
  </style>
 </defs>
 <g id="Слой_x0020_1">
  <metadata id="CorelCorpID_0Corel-Layer"/>
  <g id="_1829551892880">
   <g>
    <path class="fil0" d="M15590 20472c5528,0 10010,-70 10010,-155 0,-86 -4482,-155 -10010,-155 -1861,0 -3719,0 -5580,0 -5528,0 -10010,69 -10010,155 0,85 4482,155 10010,155 1860,0 3720,0 5580,0z"/>
    <path class="fil1" d="M14425 20426c6055,0 10874,-48 10874,-118 0,-70 -5473,-136 -10874,-136 -971,0 -1943,0 -2915,0 -5401,0 -10874,66 -10874,136 0,70 4819,118 10874,118 972,0 1944,0 2915,0z"/>
    <path class="fil2" d="M24742 20300c0,-145 -23884,-145 -23884,0 0,81 23884,81 23884,0z"/>
   </g>
   <g>
    <g>
     <rect class="fil3" x="1851" y="5144" width="21923" height="14857" rx="920" ry="566"/>
     <path class="fil4" d="M2474 5128l20676 0c175,0 335,72 451,188 116,116 188,276 188,452l0 13609c0,176 -72,336 -188,452 -116,116 -276,188 -451,188l-20676 0c-175,0 -335,-72 -451,-188 -116,-116 -188,-276 -188,-452l0 -13609c0,-176 72,-336 188,-452 116,-116 276,-188 451,-188zm20676 31l-20676 0c-167,0 -319,69 -429,179 -110,110 -179,262 -179,430l0 13609c0,168 69,320 179,430 110,110 262,178 429,178l20676 0c167,0 319,-68 429,-178 110,-110 179,-262 179,-430l0 -13609c0,-168 -69,-320 -179,-430 -110,-110 -262,-179 -429,-179z"/>
     <rect class="fil5" x="1958" y="5244" width="21708" height="14656" rx="832" ry="509"/>
     <rect class="fil6" x="2013" y="5296" width="21597" height="14553" rx="827" ry="505"/>
     <rect class="fil7" x="2613" y="5982" width="20398" height="13302"/>
     <g>
      <path class="fil8" d="M12754 5529c-26,0 -50,11 -67,28 -17,17 -28,41 -28,67 0,26 11,50 28,67 17,18 41,28 67,28 26,0 50,-10 67,-28 17,-17 28,-41 28,-67 0,-26 -11,-50 -28,-67 -17,-17 -41,-28 -67,-28zm-80 15c20,-21 49,-34 80,-34 31,0 60,13 80,34 21,20 34,49 34,80 0,32 -13,60 -34,81 -20,20 -49,33 -80,33 -31,0 -60,-13 -80,-33 -21,-21 -34,-49 -34,-81 0,-31 13,-60 34,-80z"/>
      <circle class="fil9" cx="12754" cy="5624" r="70"/>
      <circle class="fil10" cx="12754" cy="5624" r="22"/>
      <circle class="fil10" cx="12747" cy="5577" r="11"/>
     </g>
     <path class="fil11" d="M23053 5296l-9755 0 396 686 9317 0 0 13302 -1637 0 271 470 1719 0c148,-100 247,-271 247,-462l0 -13439c0,-306 -251,-557 -558,-557z"/>
    </g>
    <g>
     <path class="fil12" d="M336 20166l24928 0 0 -381c0,-17 -14,-31 -31,-31l-24866 0c-17,0 -31,14 -31,31l0 381z"/>
     <path class="fil13" d="M336 20166l24928 0 0 0c-76,91 -204,178 -432,178l-24064 0c-228,0 -356,-87 -432,-178l0 0z"/>
     <rect class="fil14" x="431" y="19754" width="252" height="413"/>
     <rect class="fil15" x="682" y="19754" width="245" height="413"/>
     <path class="fil16" d="M431 20166l0 -412 -64 0c-17,0 -31,14 -31,31l0 381 95 0z"/>
     <path class="fil17" d="M336 19785l0 381 39 0 0 -412 -8 0c-17,0 -31,14 -31,31z"/>
     <rect class="fil18" x="805" y="19754" width="123" height="413"/>
     <rect class="fil14" x="24918" y="19754" width="252" height="413"/>
     <rect class="fil15" x="24672" y="19754" width="245" height="413"/>
     <path class="fil16" d="M25169 20166l0 -412 64 0c17,0 31,14 31,31l0 381 -95 0z"/>
     <path class="fil17" d="M25264 19785l0 381 -39 0 0 -412 8 0c17,0 31,14 31,31z"/>
     <rect class="fil18" x="24672" y="19754" width="123" height="413"/>
     <path class="fil14" d="M9661 20001l6278 0c27,0 50,-22 50,-50l0 -197 -6378 0 0 197c0,28 23,50 50,50z"/>
    </g>
    <polygon class="fil19" points="23011,6617 17309,10347 23011,16678 "/>
    <polygon class="fil20" points="20082,5985 2979,5982 8701,17741 "/>
    <polygon class="fil14" points="8252,19284 8701,17741 2979,5982 2613,5982 2613,19284 "/>
    <polygon class="fil21" points="23011,19256 10096,16300 8701,17741 8252,19284 23011,19284 "/>
   </g>
   <g>
    <g>
     <path class="fil22" d="M8277 12473c79,0 151,24 218,72l2 0 0 -72 146 0 0 732 -146 0 0 -72c-68,48 -138,72 -209,72l-19 0c-110,0 -205,-48 -285,-144 -49,-69 -74,-143 -74,-221 0,-122 53,-222 157,-301 65,-44 135,-66 210,-66zm-221 365l0 0c0,82 39,147 117,196 33,17 67,25 101,25l9 0c67,0 124,-31 174,-92 26,-41 40,-81 40,-121l0 -10c0,-76 -37,-138 -109,-187 -37,-20 -75,-30 -112,-30 -70,0 -129,31 -178,92 -28,42 -42,84 -42,127z"/>
     <polygon class="fil22" points="8705,12106 8851,12106 8851,13205 8705,13205 "/>
     <path class="fil22" d="M9282 12473c108,0 201,43 279,129 57,73 86,152 86,236 -1,28 -3,52 -8,74l-565 0c18,53 54,95 107,123 32,16 65,24 99,24 58,0 110,-21 156,-64l102 102 0 2c-74,71 -159,106 -256,106l-3 0c-109,0 -202,-43 -279,-130 -58,-72 -86,-150 -86,-235 0,-109 43,-202 129,-281 70,-57 150,-86 239,-86zm-208 293l0 0 413 0c-17,-48 -50,-89 -99,-120 -37,-18 -74,-27 -109,-27 -78,0 -141,37 -191,112l-14 35z"/>
     <polygon class="fil22" points="9540,12473 9729,12473 9940,12724 10131,12493 10150,12473 10339,12473 10035,12838 10339,13205 10150,13205 9939,12953 9731,13205 9540,13205 9540,13203 9843,12840 9843,12838 "/>
     <path class="fil22" d="M11020 12473l423 0 0 146 -423 0c-40,0 -64,6 -74,19 -14,20 -21,39 -21,58 0,32 15,54 45,65l27 5 196 0c119,0 196,46 232,136 10,29 15,57 15,85 0,90 -40,155 -120,195 -33,15 -63,23 -92,23l-445 0 0 -146 437 0c34,0 57,-14 69,-43l5 -31c0,-49 -30,-73 -90,-73l-211 0c-56,0 -107,-22 -154,-64 -40,-42 -59,-93 -59,-154 0,-55 19,-106 57,-154 38,-45 99,-67 183,-67z"/>
     <polygon class="fil22" points="11625,12103 11771,12103 11771,12473 11896,12473 11896,12619 11771,12619 11771,13205 11625,13205 11625,12619 11499,12619 11499,12473 11625,12473 "/>
     <path class="fil22" d="M12298 12473c96,0 182,36 257,107 71,76 107,162 107,260 0,101 -40,191 -118,269 -73,64 -155,96 -247,96l-3 0c-109,0 -202,-43 -279,-130 -58,-72 -87,-150 -87,-235 0,-74 22,-144 66,-210 79,-105 180,-157 304,-157zm-222 354l0 0 0 9 -2 2 2 2 0 10c0,59 28,114 85,164 43,30 87,45 134,45 72,0 132,-31 180,-92 28,-42 42,-84 42,-127 0,-76 -36,-139 -106,-189 -38,-22 -78,-32 -119,-32 -73,0 -134,34 -183,102 -22,38 -33,73 -33,106z"/>
     <path class="fil22" d="M12724 12473l146 0 0 83 2 0c78,-55 175,-83 291,-83l0 146c-141,0 -233,49 -275,147 -12,29 -18,56 -18,80l0 359 -146 0 0 -732z"/>
     <path class="fil22" d="M13537 12473c108,0 201,43 279,129 57,73 86,152 86,236 -1,28 -3,52 -7,74l-566 0c18,53 54,95 108,123 31,16 64,24 98,24 58,0 110,-21 156,-64l102 102 0 2c-74,71 -159,106 -256,106l-3 0c-109,0 -202,-43 -279,-130 -57,-72 -86,-150 -86,-235 0,-109 43,-202 129,-281 70,-57 150,-86 239,-86zm-208 293l0 0 413 0c-16,-48 -49,-89 -99,-120 -37,-18 -73,-27 -109,-27 -77,0 -141,37 -191,112l-14 35z"/>
    </g>
    <g>
     <path class="fil23" d="M17441 13713c-3,0 -5,0 -7,0 0,0 0,0 -1,0 -142,0 -256,115 -256,258 0,139 116,255 256,255l0 0c140,0 255,-115 257,-254 2,-153 -127,-259 -249,-259zm-8 440l0 0c-49,0 -95,-19 -130,-54 -35,-35 -54,-80 -54,-128 0,-104 81,-186 185,-186l1 0 1 0c2,0 3,0 5,0 44,0 90,21 124,55 24,25 53,68 52,131 -1,101 -84,182 -184,182z"/>
     <path class="fil23" d="M17100 13972c0,-79 26,-150 71,-207 -34,9 -61,17 -67,18 -208,53 -414,112 -623,158 -430,96 -866,154 -1304,191 -206,18 -412,28 -618,39 -105,6 -210,5 -316,8 -208,5 -416,14 -624,19l-5699 0 0 73 9373 0c-114,-53 -193,-168 -193,-299z"/>
    </g>
    <g>
     <path class="fil24" d="M16912 12054c-1,0 -2,0 -3,0 -217,1 -401,183 -402,399 -1,221 184,407 404,407 1,0 3,0 4,0 223,-2 398,-181 398,-406 0,-222 -179,-400 -401,-400zm2 702l0 0 -3 0c-79,0 -154,-32 -211,-89 -58,-58 -90,-134 -89,-214 0,-159 137,-295 299,-296l2 0c164,0 298,133 298,297 0,168 -130,301 -296,302z"/>
     <path class="fil24" d="M16422 12539c-144,160 -411,411 -635,554 -301,193 -624,338 -960,454 -360,124 -734,224 -1110,286 -380,62 -687,99 -1330,100l0 0 -4467 0 0 73 4467 0c0,0 206,-3 307,-3 258,-1 516,-18 773,-39 319,-26 635,-73 950,-133 510,-98 1008,-237 1488,-435 353,-139 734,-372 865,-465 -177,-54 -315,-207 -348,-392z"/>
    </g>
    <g>
     <path class="fil25" d="M16222 11186c-3,0 -5,0 -7,0 -247,0 -476,204 -476,476 0,273 222,476 460,476 5,0 11,0 16,0 6,0 12,0 18,0 217,0 458,-178 458,-475 1,-298 -247,-474 -469,-477zm11 836l0 0c-4,0 -8,0 -13,0l-5 -1 -5 0c-3,1 -7,1 -11,1 -166,0 -343,-145 -344,-360 0,-97 39,-188 110,-256 68,-66 159,-104 250,-104l5 0c148,2 356,116 355,361 0,222 -178,359 -342,359z"/>
     <path class="fil25" d="M16215 12233c-220,8 -431,-129 -523,-339 -2,6 -4,11 -5,17 -30,83 -57,168 -92,249 -119,277 -297,515 -507,728 -306,313 -677,524 -1082,682 -248,96 -506,154 -768,185 -434,53 -674,45 -674,45l-4644 0 0 74 4459 0 252 0c605,-8 913,-68 1339,-168 348,-82 690,-180 1012,-340 457,-228 850,-539 1185,-923 41,-46 117,-149 170,-220 -41,8 -82,12 -122,10z"/>
    </g>
    <g>
     <path class="fil26" d="M15245 10389c-2,0 -3,0 -5,0 -335,0 -550,274 -547,548 2,304 246,551 549,551 0,0 1,0 1,0 301,-1 548,-247 549,-546 7,-262 -193,-550 -547,-553zm417 551l0 0 0 1c0,230 -188,417 -420,418 -230,0 -418,-190 -420,-423 -1,-110 44,-219 122,-298 55,-55 150,-120 296,-120l4 0c152,1 248,68 301,124 77,79 120,189 117,296l0 2z"/>
     <path class="fil26" d="M14738 11361c6,161 7,375 -7,528 -24,272 -87,532 -204,780 -149,314 -380,547 -689,704 -317,162 -657,245 -1009,275 -149,13 -450,20 -450,20l-4459 0 0 73 4467 0c0,0 986,33 1728,-292 281,-123 523,-300 721,-534 150,-176 277,-369 390,-572 109,-197 193,-402 251,-618 8,-29 28,-115 45,-190 -85,40 -179,63 -279,63 -203,0 -384,-92 -505,-237z"/>
    </g>
    <g>
     <path class="fil27" d="M17294 12912c-3,0 -6,0 -9,0 0,0 0,0 0,0 -183,0 -330,147 -330,332 0,179 149,327 329,327 0,0 0,0 0,0 181,0 328,-147 330,-326 3,-198 -163,-333 -320,-333zm-10 574l0 0c-65,0 -126,-26 -173,-73 -46,-46 -71,-106 -71,-169 0,-138 108,-247 245,-247l2 0 1 0c2,0 4,0 6,0 59,0 120,27 165,73 33,33 71,90 70,174 -2,133 -112,242 -245,242z"/>
     <path class="fil27" d="M16869 13245c0,-22 2,-43 5,-63 -44,23 -84,45 -125,66 -427,217 -875,375 -1338,497 -378,98 -761,170 -1148,220 -164,21 -328,38 -493,51 -179,13 -358,21 -538,28 -180,7 -360,16 -540,21l-4772 0 0 74 4459 0 0 0 1063 0c222,-7 444,-14 666,-23 252,-11 504,-19 755,-41 265,-23 529,-59 793,-95 374,-52 744,-130 1107,-237 105,-31 238,-78 359,-120 -148,-63 -253,-210 -253,-378z"/>
    </g>
    <g>
     <path class="fil22" d="M16428 11410l-216 0c-20,0 -36,17 -36,37l0 408c0,20 16,37 36,37l216 0c20,0 37,-17 37,-37l0 -408c0,-20 -17,-37 -37,-37zm-108 458l0 0c-13,0 -22,-10 -22,-22 0,-12 9,-22 22,-22 12,0 22,10 22,22 0,12 -10,22 -22,22zm93 -65l0 0 -186 0 0 -341 186 0 0 341z"/>
     <path class="fil22" d="M16015 11482l-29 -26c-46,52 -74,121 -74,197 0,63 20,122 53,170l34 -20c-30,-42 -48,-94 -48,-150 0,-66 24,-125 64,-171z"/>
     <path class="fil22" d="M16072 11534l-29 -26c-33,39 -53,89 -53,145 0,49 16,94 43,131l33 -20c-23,-31 -37,-70 -37,-111 0,-45 16,-87 43,-119z"/>
     <path class="fil22" d="M16131 11588l-29 -27c-21,25 -33,57 -33,92 0,34 12,66 32,91l35 -21c-17,-18 -28,-43 -28,-70 0,-25 9,-47 23,-65z"/>
    </g>
    <g>
     <path class="fil22" d="M17522 13833l-114 0c-11,0 -19,8 -19,19l0 66c8,-6 17,-8 27,-9l0 -49 98 0 0 180 -98 0 0 -18c-3,0 -6,0 -10,-1l-17 20 0 26c0,11 8,20 19,20l114 0c11,0 19,-9 19,-20l0 -215c0,-11 -8,-19 -19,-19zm-34 18l0 0 -46 0 0 -9 46 0 0 9zm-23 223l0 0c-7,0 -12,-5 -12,-12 0,-6 5,-11 12,-11 6,0 11,5 11,11 0,7 -5,12 -11,12z"/>
     <path class="fil22" d="M17402 14003c3,2 7,3 11,3 1,1 2,1 3,1 0,0 0,0 0,0 3,0 6,0 9,0 1,0 1,0 2,-1 3,0 7,-1 10,-3 1,0 1,-1 2,-1 4,-2 7,-4 10,-7 11,-11 14,-27 10,-41l-27 27c-2,2 -5,3 -7,3 -3,0 -6,-1 -8,-3l-1 -1 -13 -13c-1,-1 -2,-2 -2,-3 -1,-2 -1,-3 -1,-4 0,-2 0,-3 1,-4 0,-1 1,-2 2,-3l13 -13 14 -14c0,0 0,0 -1,0 -3,-1 -6,-2 -10,-2 -1,0 -2,1 -3,1 -2,0 -4,0 -6,0 -1,1 -2,1 -3,1 -2,1 -4,2 -7,3 0,0 -1,1 -2,1 -3,2 -6,4 -8,6 -1,1 -1,1 -1,2 -12,12 -14,30 -7,45l-81 74c-6,6 -6,16 0,22l6 6c3,3 7,4 11,4 2,0 4,0 5,-1 2,-1 4,-2 5,-3l61 -67 13 -15zm-77 72l0 0c-2,2 -5,4 -7,4 -3,0 -6,-2 -8,-4 -5,-4 -5,-11 0,-15 2,-3 5,-4 8,-4 2,0 5,1 7,4 5,4 5,11 0,15z"/>
    </g>
    <g>
     <path class="fil22" d="M14966 10937l42 -64 -32 -5c31,-120 139,-208 268,-208 120,0 222,76 261,182l51 -11c-45,-130 -167,-223 -312,-223 -155,0 -284,107 -319,251l-42 -7 40 151 22 -33 21 -33z"/>
     <path class="fil22" d="M15573 10909l-1 -2 -6 -31 -29 39 -15 20 -49 65 40 10c-32,118 -140,206 -269,206 -117,0 -217,-73 -258,-176l-51 11c46,126 167,217 309,217 153,0 282,-105 319,-247l34 8 -24 -120z"/>
     <path class="fil22" d="M15109 10979l-26 23 0 29 142 0 0 -39 -75 0 0 -1 18 -15c29,-26 54,-53 54,-87 0,-37 -25,-63 -71,-63 -27,0 -51,9 -66,21l13 33c11,-8 26,-16 43,-16 24,0 34,13 34,29 -1,24 -22,46 -66,86z"/>
     <path class="fil22" d="M15383 11031l0 -48 24 0 0 -36 -24 0 0 -118 -58 0 -76 123 0 31 89 0 0 48 45 0zm-90 -84l0 0 0 0 27 -44c7,-13 12,-25 18,-38l2 0c-1,13 -2,26 -2,38l0 44 -45 0z"/>
    </g>
    <path class="fil22" d="M17434 13096l-296 0c-18,0 -34,14 -35,33l0 181c2,18 17,33 35,33l89 0 0 37 -46 0c-20,0 -36,16 -36,36l0 1 280 0 0 -1c0,-20 -16,-36 -35,-36l-44 0 0 -37 88 0c20,0 36,-16 36,-36l0 -175c0,-20 -16,-36 -36,-36zm-112 284l0 0 -71 0 0 -37 71 0 0 37zm109 -75l0 0 -290 0 0 -173 290 0 0 173z"/>
    <path class="fil22" d="M17132 12433l-32 -34 -31 -33c0,0 -8,-12 -26,-12 -15,0 -63,0 -63,0 -2,0 -5,0 -7,1l0 -25c0,-18 -15,-33 -33,-33l-230 0c-17,0 -32,15 -32,33l0 228c0,18 15,32 32,32l26 0c5,26 27,46 55,46 27,0 50,-20 55,-46l94 0c8,0 14,-2 20,-6 6,4 13,6 20,6l15 0c4,26 27,46 55,46 27,0 50,-20 55,-46l16 0c23,0 42,-22 42,-49 0,0 0,-32 0,-52 0,-7 0,-19 -5,-26 -9,-13 -26,-30 -26,-30zm-323 157l0 0c-3,7 -10,11 -18,11 -8,0 -15,-4 -19,-11 -2,-3 -3,-6 -3,-10 0,-12 10,-22 22,-22 12,0 21,10 21,22 0,4 -1,7 -3,10zm129 -187l0 0 0 138 0 15 -97 0c-9,-19 -28,-33 -50,-33 -23,0 -42,14 -51,33l-28 0 0 -224 226 0 0 71zm112 198l0 0c-8,0 -15,-4 -19,-11 -2,-3 -3,-6 -3,-10 0,-12 10,-22 22,-22 12,0 21,10 21,22 0,4 -1,7 -3,10 -3,7 -10,11 -18,11zm79 -60l0 0c0,10 -6,15 -8,15l-21 0c-9,-19 -28,-33 -50,-33 -23,0 -42,14 -51,33l-19 0c-2,0 -7,-5 -7,-15l0 -138c0,-10 5,-15 7,-15l63 0 10 11 -24 0c-10,0 -19,8 -19,19l0 72c0,10 9,19 19,19l100 0 0 32zm-85 -66l0 0 0 -42 41 0 39 42 -80 0z"/>
   </g>
  </g>
 </g>
</svg>
