<?xml version="1.0" encoding="UTF-8"?>
<!DOCTYPE svg PUBLIC "-//W3C//DTD SVG 1.1//EN" "http://www.w3.org/Graphics/SVG/1.1/DTD/svg11.dtd">
<!-- Creator: CorelDRAW X7 -->
<svg xmlns="http://www.w3.org/2000/svg" xml:space="preserve" width="256mm" height="256mm" version="1.1" style="shape-rendering:geometricPrecision; text-rendering:geometricPrecision; image-rendering:optimizeQuality; fill-rule:evenodd; clip-rule:evenodd"
viewBox="0 0 25600 25600"
 xmlns:xlink="http://www.w3.org/1999/xlink">
 <defs>
  <style type="text/css">
   <![CDATA[
    .fil13 {fill:#00778C}
    .fil18 {fill:#0191A9}
    .fil3 {fill:#242323}
    .fil15 {fill:#363636}
    .fil2 {fill:dimgray}
    .fil14 {fill:#9BDAE9}
    .fil1 {fill:#A3A3A3}
    .fil0 {fill:#DEDDDB}
    .fil6 {fill:white}
    .fil17 {fill:#00778C;fill-rule:nonzero}
    .fil11 {fill:#0191A9;fill-rule:nonzero}
    .fil9 {fill:#242323;fill-rule:nonzero}
    .fil7 {fill:#363636;fill-rule:nonzero}
    .fil16 {fill:#4A4747;fill-rule:nonzero}
    .fil8 {fill:#4D4D4D;fill-rule:nonzero}
    .fil4 {fill:gray;fill-rule:nonzero}
    .fil10 {fill:#999999;fill-rule:nonzero}
    .fil12 {fill:#9BDAE9;fill-rule:nonzero}
    .fil5 {fill:#CCCCCC;fill-rule:nonzero}
   ]]>
  </style>
 </defs>
 <g id="Слой_x0020_1">
  <metadata id="CorelCorpID_0Corel-Layer"/>
  <g id="_1829559336912">
   <g>
    <path class="fil0" d="M7762 20969c2319,0 4200,-74 4200,-165 0,-91 -1881,-165 -4200,-165 -781,0 -1561,0 -2341,0 -2320,0 -4201,74 -4201,165 0,91 1881,165 4201,165 780,0 1560,0 2341,0z"/>
    <path class="fil1" d="M7245 20921c2438,0 4378,-52 4378,-126 0,-75 -2203,-145 -4378,-145 -391,0 -782,0 -1173,0 -2174,0 -4378,70 -4378,145 0,74 1940,126 4378,126 391,0 782,0 1173,0z"/>
    <path class="fil2" d="M11399 20786c0,-154 -9616,-154 -9616,0 0,87 9616,87 9616,0z"/>
   </g>
   <g>
    <path class="fil3" d="M7865 10269l-203 1731c276,0 509,-23 784,-3 355,26 418,-116 407,-357 -20,-423 23,-1021 268,-1371l-1256 0z"/>
    <polygon class="fil4" points="25321,7653 19636,7653 19636,7247 25321,7247 25600,7450 "/>
    <polygon class="fil5" points="21240,7653 21523,7247 21853,7247 21570,7653 "/>
    <polygon class="fil5" points="22092,7653 22375,7247 22705,7247 22422,7653 "/>
    <polygon class="fil5" points="22945,7653 23228,7247 23557,7247 23274,7653 "/>
    <polygon class="fil5" points="23797,7653 24080,7247 24410,7247 24127,7653 "/>
    <polygon class="fil5" points="24650,7653 24933,7247 25262,7247 24979,7653 "/>
    <polygon class="fil6" points="25589,7459 19710,7459 19710,7531 25483,7531 "/>
    <path class="fil7" d="M2557 16689l44 0c453,0 835,-339 887,-789l439 -3739c87,-748 104,-1401 -745,-1670 -962,-304 -1699,-234 -2497,-976 -915,-850 -916,-3287 11,-4140 502,-462 1172,-744 1908,-744l9551 0 1777 402c119,31 190,97 195,211l0 4412c-5,114 -76,180 -194,211l-1778 402 -4184 0 -261 2224 -381 414 -319 2785c-29,253 51,507 220,698 170,190 412,299 667,299l-5340 0z"/>
    <path class="fil4" d="M12955 5943l1172 0 0 -558 -1172 0c-154,0 -279,125 -279,279 0,154 125,279 279,279z"/>
    <path class="fil4" d="M12955 7208l1172 0 0 -558 -1172 0c-154,0 -279,125 -279,279 0,154 125,279 279,279z"/>
    <path class="fil4" d="M12955 8474l1172 0 0 -558 -1172 0c-154,0 -279,124 -279,279 0,154 125,279 279,279z"/>
    <path class="fil4" d="M12955 9739l1154 0c11,-24 17,-52 18,-83l0 -29 0 -446 -1172 0c-154,0 -279,125 -279,279 0,154 125,279 279,279z"/>
    <path class="fil8" d="M12955 5831l1172 0 0 -558 -1172 0c-154,0 -279,125 -279,279 0,154 125,279 279,279z"/>
    <path class="fil8" d="M12955 7097l1172 0 0 -559 -1172 0c-154,0 -279,125 -279,280 0,154 125,279 279,279z"/>
    <path class="fil8" d="M12955 8362l1172 0 0 -558 -1172 0c-154,0 -279,125 -279,279 0,154 125,279 279,279z"/>
    <path class="fil8" d="M12955 9627l1172 0 0 -558 -1172 0c-154,0 -279,125 -279,279 0,154 125,279 279,279z"/>
    <path class="fil9" d="M17254 9348l-2262 0c-119,-13 -186,-74 -195,-209l0 -3347 0 0c0,-157 69,-226 196,-240l2261 0 0 3796z"/>
    <path class="fil8" d="M16081 6548l1173 0 0 -558 -1173 0c-154,0 -279,125 -279,279 0,154 125,279 279,279z"/>
    <path class="fil8" d="M16081 7674l1173 0 0 -559 -1173 0c-154,0 -279,125 -279,279 0,155 125,280 279,280z"/>
    <path class="fil8" d="M16081 8799l1173 0 0 -558 -1173 0c-154,0 -279,125 -279,279 0,154 125,279 279,279z"/>
    <polygon class="fil9" points="17254,5552 17254,9348 19040,8520 19710,8210 19710,6691 19040,6381 "/>
    <polygon class="fil10" points="14797,9125 14127,9125 14127,5775 14798,5775 "/>
    <polygon class="fil10" points="19040,6381 19040,6812 19710,7116 19710,6691 "/>
    <polygon class="fil10" points="19710,7340 19040,7127 19040,8520 19710,8210 "/>
    <polygon class="fil10" points="20268,7339 19710,7339 19710,6949 20268,6949 "/>
    <polygon class="fil10" points="20268,7953 19710,7953 19710,7563 20268,7563 "/>
    <path class="fil11" d="M3970 16689c284,0 522,-212 555,-493l594 -5068c66,-563 -119,-868 -683,-1015 -712,-186 -1832,-108 -1832,-1593l0 -3889 9551 0 0 5638 -3430 0 15 4c-279,5 -513,215 -546,494l-208 1679c-49,376 -347,497 -657,461l247 -2010c19,-159 -31,-317 -137,-436 -106,-120 -258,-188 -417,-188l10 -4 -283 0c-283,0 -522,212 -555,494l-621 5303c-39,331 221,623 554,623l4153 0c493,0 893,400 893,893l0 2353c0,494 -400,893 -893,893l-7679 0c-198,0 -360,-162 -360,-360l0 -3419c0,-198 162,-360 360,-360l184 0 1185 0zm-1072 -6420l-294 0 290 0 4 0z"/>
    <path class="fil12" d="M8196 9725l949 0c154,0 279,-125 279,-279 0,-154 -125,-279 -279,-279l-949 0c-154,0 -279,125 -279,279 0,154 125,279 279,279z"/>
    <path class="fil9" d="M8196 9613l949 0c154,0 279,-125 279,-279 0,-154 -125,-279 -279,-279l-949 0c-154,0 -279,125 -279,279 0,154 125,279 279,279z"/>
    <polygon class="fil5" points="14797,6557 14127,6557 14127,6111 14797,6111 "/>
    <polygon class="fil5" points="14797,7180 14127,7180 14127,6845 14797,6845 "/>
    <polygon class="fil5" points="19040,6812 19040,7127 19710,7340 19710,7116 "/>
    <polygon class="fil10" points="17254,5999 17254,6557 19040,7127 19040,6812 "/>
    <polygon class="fil5" points="19040,8231 19040,7842 19710,7842 19710,7926 "/>
    <polygon class="fil8" points="17254,9043 17254,7842 19040,7842 19040,8231 "/>
    <path class="fil13" d="M3476 4631l7079 0c-105,326 -373,558 -685,558 -1902,0 -3800,0 -5709,0 -312,0 -580,-232 -685,-558z"/>
    <path class="fil14" d="M4382 4631l3026 0c-53,181 -187,310 -343,310 -951,0 -1386,0 -2340,0 -156,0 -290,-129 -343,-310z"/>
    <path class="fil9" d="M11077 17180c61,121 96,258 96,402l0 2353c0,494 -400,893 -893,893l-7679 0c-198,0 -360,-162 -360,-360l0 -3288 8836 0z"/>
    <path class="fil15" d="M4382 4631l3026 0c-53,138 -187,237 -343,237 -951,0 -1386,0 -2340,0 -156,0 -290,-99 -343,-237z"/>
    <path class="fil16" d="M5922 20469l4181 0c469,0 849,-380 849,-849l0 -286c0,469 -380,849 -849,849l-4181 0 -1816 0 -1127 0 -175 0c-188,0 -342,-154 -342,-343l0 287c0,188 154,342 342,342l175 0 1127 0 1816 0z"/>
    <path class="fil12" d="M4159 8931l199 527c33,86 128,155 214,155 86,0 129,-69 96,-155l-199 -527c-33,-86 -128,-155 -214,-155 -86,0 -129,69 -96,155z"/>
    <path class="fil17" d="M4221 8931l199 527c33,86 128,155 214,155 86,0 129,-69 96,-155l-199 -527c-33,-86 -128,-155 -214,-155 -86,0 -129,69 -96,155z"/>
    <path class="fil12" d="M4690 8931l200 527c32,86 128,155 213,155 86,0 129,-69 97,-155l-200 -527c-32,-86 -128,-155 -214,-155 -85,0 -128,69 -96,155z"/>
    <path class="fil17" d="M4752 8931l200 527c32,86 128,155 213,155 86,0 129,-69 97,-155l-200 -527c-32,-86 -128,-155 -214,-155 -85,0 -128,69 -96,155z"/>
    <path class="fil12" d="M5221 8931l200 527c32,86 128,155 214,155 85,0 129,-69 96,-155l-199 -527c-33,-86 -129,-155 -214,-155 -86,0 -129,69 -97,155z"/>
    <path class="fil17" d="M5283 8931l200 527c32,86 128,155 214,155 85,0 129,-69 96,-155l-199 -527c-33,-86 -129,-155 -214,-155 -86,0 -129,69 -97,155z"/>
    <path class="fil12" d="M5753 8931l199 527c33,86 128,155 214,155 86,0 129,-69 96,-155l-199 -527c-33,-86 -128,-155 -214,-155 -86,0 -129,69 -96,155z"/>
    <path class="fil17" d="M5815 8931l199 527c33,86 128,155 214,155 86,0 129,-69 97,-155l-200 -527c-32,-86 -128,-155 -214,-155 -86,0 -129,69 -96,155z"/>
    <path class="fil12" d="M6284 8931l200 527c32,86 128,155 213,155 86,0 129,-69 97,-155l-200 -527c-32,-86 -128,-155 -214,-155 -85,0 -128,69 -96,155z"/>
    <path class="fil17" d="M6346 8931l200 527c32,86 128,155 214,155 85,0 128,-69 96,-155l-200 -527c-32,-86 -128,-155 -213,-155 -86,0 -129,69 -97,155z"/>
    <path class="fil15" d="M2373 6056l7339 0 1289 898 -1289 1398 -6668 9c-600,0 -956,58 -1280,-651l-317 -694c-70,-153 -90,-348 41,-450l885 -510z"/>
    <path class="fil18" d="M2604 5806l7339 0 1058 1148 -1249 763 -6300 8c-600,0 -732,97 -1280,-458l-424 -430c-202,-205 -171,-439 54,-569l802 -462z"/>
   </g>
  </g>
 </g>
</svg>
