<svg width="15" height="17" viewBox="0 0 15 17" fill="none" xmlns="http://www.w3.org/2000/svg">
<path d="M14.2624 2.75273L7.75463 0.0507634C7.59161 -0.0169045 7.40836 -0.0169377 7.24537 0.0507634L0.737553 2.75273C0.489691 2.85566 0.328125 3.09765 0.328125 3.36603V6.65065C0.328125 11.1733 3.06171 15.2416 7.24905 16.9508C7.40989 17.0164 7.59008 17.0164 7.75095 16.9508C11.9382 15.2417 14.6719 11.1734 14.6719 6.65065V3.36603C14.6719 3.09765 14.5103 2.85566 14.2624 2.75273ZM13.3438 6.65065C13.3438 10.4954 11.0859 14.0348 7.5 15.6146C4.00989 14.077 1.65625 10.5996 1.65625 6.65065V3.80936L7.5 1.38307L13.3438 3.80936V6.65065ZM6.76601 8.889L9.62029 6.03476C9.8796 5.77545 10.3001 5.77541 10.5594 6.03476C10.8188 6.29411 10.8187 6.71456 10.5594 6.97388L7.23557 10.2977C6.97619 10.5571 6.55574 10.557 6.29645 10.2977L4.4406 8.44182C4.18125 8.18247 4.18125 7.76202 4.4406 7.50271C4.69995 7.24339 5.1204 7.24336 5.37971 7.50271L6.76601 8.889Z" fill="#71858D"/>
</svg>
